#define mtall_width 22
#define mtall_height 22
static unsigned char mtall_bits[] = {
   0x00, 0x00, 0x00, 0x00, 0x00, 0x00, 0x00, 0x00, 0x00, 0x00, 0x00, 0x00,
   0xf0, 0xff, 0x03, 0xf0, 0xff, 0x03, 0xf0, 0xff, 0x03, 0xf0, 0xff, 0x03,
   0xf0, 0xff, 0x03, 0xf0, 0xff, 0x03, 0xf0, 0xff, 0x03, 0xf0, 0xff, 0x03,
   0xf0, 0xff, 0x03, 0x00, 0x00, 0x00, 0x00, 0x00, 0x00, 0x70, 0x9e, 0x03,
   0x70, 0x9e, 0x03, 0x70, 0x9e, 0x03, 0x70, 0x9e, 0x03, 0x70, 0x9e, 0x03,
   0x00, 0x00, 0x00, 0x00, 0x00, 0x00 };
