#define tall_width 22
#define tall_height 22
static unsigned char tall_bits[] = {
   0x00, 0x00, 0x00, 0x00, 0x00, 0x00, 0x00, 0x00, 0x00, 0xfc, 0x7f, 0x1f,
   0xfc, 0x7f, 0x1f, 0xfc, 0x7f, 0x1f, 0xfc, 0x7f, 0x00, 0xfc, 0x7f, 0x00,
   0xfc, 0x7f, 0x1f, 0xfc, 0x7f, 0x1f, 0xfc, 0x7f, 0x1f, 0xfc, 0x7f, 0x1f,
   0xfc, 0x7f, 0x1f, 0xfc, 0x7f, 0x1f, 0xfc, 0x7f, 0x1f, 0xfc, 0x7f, 0x00,
   0xfc, 0x7f, 0x1f, 0xfc, 0x7f, 0x1f, 0xfc, 0x7f, 0x1f, 0x00, 0x00, 0x00,
   0x00, 0x00, 0x00, 0x00, 0x00, 0x00 };
