/* XPM */
static char * 2000px_Xmonad_logo_svg_20x20_xpm[] = {
"13 20 15 1",
" 	c None",
".	c #FFFFFF",
"+	c #515151",
"@	c #B8B8B8",
"#	c #585858",
"$	c #4E4E4E",
"%	c #E0E0E0",
"&	c #AAAAAA",
"*	c #FBFBFB",
"=	c #F1F1F1",
"-	c #EDFDFE",
";	c #FAFFFF",
">	c #FCFFFF",
",	c #26F6FF",
"'	c #11F5FF",
" ..       ++ ",
"  ..     +++ ",
"  ...    ++  ",
"   ..   ++   ",
"    ..  ++   ",
"    ..@#$    ",
"     .%&     ",
"     .*=     ",
"    .....    ",
"    .....    ",
"   ..   ..   ",
"  ..     ..  ",
"  ..     ... ",
" ..       .. ",
"-;.       ;>;",
",            ",
"             ",
"  ''  ''     ",
"             ",
"'   '        "};
