/* XPM */
static char * 2000px_Xmonad_logo_svg_24x24_xpm[] = {
"15 24 16 1",
" 	c None",
".	c #FFFFFF",
"+	c #515151",
"@	c #D3D3D3",
"#	c #4B4B4B",
"$	c #505050",
"%	c #ECECEC",
"&	c #8A8A8A",
"*	c #484848",
"=	c #E8E8E8",
"-	c #FEFEFE",
";	c #E8FDFE",
">	c #2DF6FF",
",	c #0EF5FF",
"'	c #0FF5FF",
")	c #11F5FF",
" ...        ++ ",
"  ..       +++ ",
"  ...     +++  ",
"   ...    ++   ",
"    ..   +++   ",
"    ...  ++    ",
"     ..@#$     ",
"      .%&*     ",
"      ..=      ",
"      ....     ",
"     .....     ",
"    -.. ...    ",
"    ..   ..    ",
"   ...    ..   ",
"  -..     ...  ",
"  ..       ..  ",
" ...        .. ",
";..         .. ",
">              ",
",'   ))    )',,",
"  ))   ))      ",
"   ))   )      ",
" ))   ))   ))))",
")    )         "};
