/* XPM */
static char * 2000px_Xmonad_logo_svg_16x16_xpm[] = {
"10 16 11 1",
" 	c None",
".	c #FFFFFF",
"+	c #515151",
"@	c #FBFBFB",
"#	c #6F6F6F",
"$	c #4E4E4E",
"%	c #DEDEDE",
"&	c #FAFEFE",
"*	c #14F5FF",
"=	c #10F5FF",
"-	c #11F5FF",
" ..     + ",
" ..    ++ ",
"  ..  ++  ",
"   .. +   ",
"   .@#$   ",
"    .%    ",
"    ..    ",
"   ....   ",
"  ..  ..  ",
"  .    .  ",
" ..    .. ",
"&.      ..",
"*         ",
" =-  -    ",
"  -  -    ",
"-  -      "};
