/* XPM */
static char * Actions_speaker_icon_xpm[] = {
"24 24 279 2",
"  	c None",
". 	c #FAE746",
"+ 	c #FFEB43",
"@ 	c #FEEA3E",
"# 	c #EED933",
"$ 	c #E6D22E",
"% 	c #EFDA2D",
"& 	c #FCE630",
"* 	c #FBE62F",
"= 	c #FAE42D",
"- 	c #FBE844",
"; 	c #EFDB3C",
"> 	c #A2912B",
", 	c #7A6F43",
"' 	c #7C735C",
") 	c #837C67",
"! 	c #8B8364",
"~ 	c #938A55",
"{ 	c #A5983B",
"] 	c #C1B12A",
"^ 	c #E4D02C",
"/ 	c #EBD621",
"( 	c #F2DD3B",
"_ 	c #F1DD3A",
": 	c #766C3D",
"< 	c #827F8D",
"[ 	c #8D8A9B",
"} 	c #908D9D",
"| 	c #9491A1",
"1 	c #A09DAC",
"2 	c #AEACBC",
"3 	c #BAB9CB",
"4 	c #BEBCC4",
"5 	c #B7B2A1",
"6 	c #BFB678",
"7 	c #C9BB42",
"8 	c #D3BE11",
"9 	c #F6DE18",
"0 	c #E5CF2D",
"a 	c #CFBE37",
"b 	c #7E7A77",
"c 	c #726E79",
"d 	c #7B7785",
"e 	c #837F8D",
"f 	c #8A8694",
"g 	c #938F9D",
"h 	c #A3A0AC",
"i 	c #B3B0BA",
"j 	c #C0BEC8",
"k 	c #CECCD5",
"l 	c #D8D7DD",
"m 	c #DBD9D9",
"n 	c #D5D1BA",
"o 	c #B5A743",
"p 	c #DBC611",
"q 	c #F1D918",
"r 	c #D8BE1E",
"s 	c #DCCA30",
"t 	c #817E76",
"u 	c #625F68",
"v 	c #76727F",
"w 	c #817D8B",
"x 	c #868290",
"y 	c #8C8996",
"z 	c #9895A2",
"A 	c #A8A5B0",
"B 	c #B6B3BD",
"C 	c #C2C0C9",
"D 	c #CECCD3",
"E 	c #D7D6DC",
"F 	c #DEDDE3",
"G 	c #E1E0E8",
"H 	c #BBB698",
"I 	c #C8B72D",
"J 	c #EBD318",
"K 	c #BEA20E",
"L 	c #F5DE21",
"M 	c #9A925A",
"N 	c #605D69",
"O 	c #6C6974",
"P 	c #7B7885",
"Q 	c #888492",
"R 	c #8D8A97",
"S 	c #9996A2",
"T 	c #A7A5B0",
"U 	c #B4B1BB",
"V 	c #BEBDC5",
"W 	c #C8C5CE",
"X 	c #CECCD4",
"Y 	c #D2D1D7",
"Z 	c #D4D3DE",
"` 	c #BDBABD",
" .	c #B6AB5D",
"..	c #DBC519",
"+.	c #D7BD13",
"@.	c #EBD418",
"#.	c #817D78",
"$.	c #5D5B66",
"%.	c #736F7B",
"&.	c #7F7B88",
"*.	c #84808E",
"=.	c #9794A1",
"-.	c #A3A0AB",
";.	c #ADAAB4",
">.	c #B5B3BC",
",.	c #BCBAC3",
"'.	c #C0BEC7",
").	c #C1BFC8",
"!.	c #BFBEC7",
"~.	c #B1AFB7",
"{.	c #A29A72",
"].	c #DDC81D",
"^.	c #E7CC15",
"/.	c #E5CC0D",
"(.	c #DDC81C",
"_.	c #77746E",
":.	c #65626D",
"<.	c #74717D",
"[.	c #7F7B89",
"}.	c #827F8C",
"|.	c #7B7985",
"1.	c #75737F",
"2.	c #94919E",
"3.	c #A19EA9",
"4.	c #ACAAB3",
"5.	c #AEABB5",
"6.	c #ABA8B2",
"7.	c #9A99A8",
"8.	c #888162",
"9.	c #DFCA1C",
"0.	c #A28C1E",
"a.	c #DBBF04",
"b.	c #DAC623",
"c.	c #7E7969",
"d.	c #605E6F",
"e.	c #75717D",
"f.	c #75727F",
"g.	c #656572",
"h.	c #767583",
"i.	c #6E6E7B",
"j.	c #61606C",
"k.	c #696872",
"l.	c #908D9A",
"m.	c #96939F",
"n.	c #9895A1",
"o.	c #9793A0",
"p.	c #908C99",
"q.	c #787686",
"r.	c #90865B",
"s.	c #E2CA18",
"t.	c #948744",
"u.	c #CEB311",
"v.	c #E0C70A",
"w.	c #9A905D",
"x.	c #605F72",
"y.	c #6E6B76",
"z.	c #908E9D",
"A.	c #A9A5B5",
"B.	c #9F9BAB",
"C.	c #7C7A88",
"D.	c #51525C",
"E.	c #4A4A52",
"F.	c #888592",
"G.	c #878491",
"H.	c #85818F",
"I.	c #7D7987",
"J.	c #69666E",
"K.	c #BCAC39",
"L.	c #E1C512",
"M.	c #887E4F",
"N.	c #BEA939",
"O.	c #DFC20B",
"P.	c #B6A43D",
"Q.	c #716B61",
"R.	c #787581",
"S.	c #C1BACC",
"T.	c #B9B4C5",
"U.	c #8C8998",
"V.	c #5D5D68",
"W.	c #2B2C31",
"X.	c #7D7A86",
"Y.	c #827E8C",
"Z.	c #807C8A",
"`.	c #7C7886",
" +	c #787481",
".+	c #595661",
"++	c #968C4F",
"@+	c #E2C819",
"#+	c #86836B",
"$+	c #9F9253",
"%+	c #C8B02E",
"&+	c #D9C240",
"*+	c #A18E30",
"=+	c #837A63",
"-+	c #807E92",
";+	c #777586",
">+	c #5F5F6A",
",+	c #56545C",
"'+	c #777380",
")+	c #75727E",
"!+	c #73707C",
"~+	c #706D78",
"{+	c #6B6873",
"]+	c #66636D",
"^+	c #4A4952",
"/+	c #8E8546",
"(+	c #E4CA19",
"_+	c #949792",
":+	c #585A54",
"<+	c #848169",
"[+	c #908038",
"}+	c #CBBA66",
"|+	c #D8BE39",
"1+	c #B99E1C",
"2+	c #8B7E4B",
"3+	c #64626C",
"4+	c #5C5A6A",
"5+	c #5E5C69",
"6+	c #5F5D67",
"7+	c #5F5C66",
"8+	c #5B5962",
"9+	c #57555E",
"0+	c #474551",
"a+	c #494747",
"b+	c #CEBB22",
"c+	c #E1C511",
"d+	c #7F827E",
"e+	c #747773",
"f+	c #3D3F3D",
"g+	c #666969",
"h+	c #6C684D",
"i+	c #837740",
"j+	c #B7A553",
"k+	c #CFB42C",
"l+	c #CFAE09",
"m+	c #BBA327",
"n+	c #9F8D3C",
"o+	c #867A4B",
"p+	c #736B4E",
"q+	c #686248",
"r+	c #6F6737",
"s+	c #968922",
"t+	c #E0CA0B",
"u+	c #D9C10C",
"v+	c #767975",
"w+	c #767976",
"x+	c #676A67",
"y+	c #393B39",
"z+	c #303231",
"A+	c #474848",
"B+	c #545243",
"C+	c #676242",
"D+	c #827742",
"E+	c #938024",
"F+	c #A38A0E",
"G+	c #B19500",
"H+	c #BC9F00",
"I+	c #C2A801",
"J+	c #C2AA02",
"K+	c #BFA800",
"L+	c #AB9603",
"M+	c #676B68",
"N+	c #646866",
"O+	c #5D615F",
"P+	c #3B3D3C",
"Q+	c #292A29",
"R+	c #272928",
"S+	c #343533",
"T+	c #434641",
"U+	c #4D4E44",
"V+	c #5B5845",
"W+	c #5E5A42",
"X+	c #5A5E5C",
"Y+	c #535756",
"Z+	c #525756",
"`+	c #4F5454",
" @	c #474D4D",
".@	c #3D4344",
"+@	c #33383A",
"                                                ",
"                                                ",
"    . + @ # $ % & * =                           ",
"  - ; > , ' ) ! ~ { ] ^ /                       ",
"( _ : < [ } | 1 2 3 4 5 6 7 8 9                 ",
"0 a b c d e f g h i j k l m n o p q             ",
"r s t u v w x y z A B C D E F G H I J           ",
"K L M N O P e Q R S T U V W X Y Z `  ...        ",
"  +.@.#.$.%.&.*.Q R =.-.;.>.,.'.).!.~.{.].^.    ",
"    /.(._.:.<.[.}.|.1.}.2.3.A 4.5.5.6.7.8.9.    ",
"    0.a.b.c.d.e.f.g.h.i.j.k.l.m.n.n.o.p.q.r.s.  ",
"      t.u.v.w.x.y.z.A.B.C.D.E.y F.G.x H.I.J.K.L.",
"        M.N.O.P.Q.R.S.T.U.V.W.X.Y.Z.[.`. +.+++@+",
"          #+$+%+&+*+=+-+;+>+,+'+)+!+~+{+]+^+/+(+",
"          _+:+<+[+}+|+1+2+3+4+5+6+7+8+9+0+a+b+c+",
"          d+e+f+g+h+i+j+k+l+m+n+o+p+q+r+s+t+u+  ",
"          v+w+x+y+z+A+B+C+D+E+F+G+H+I+J+K+L+    ",
"              M+N+O+P+Q+R+S+T+U+V+W+            ",
"                X+Y+Z+`+ @.@+@                  ",
"                                                ",
"                                                ",
"                                                ",
"                                                ",
"                                                "};
