/* XPM */
static char * App_shutdown_icon_24x24_xpm[] = {
"24 24 263 2",
"  	c None",
". 	c #D1E0EE",
"+ 	c #D2DFEF",
"@ 	c #92B3D6",
"# 	c #ABC6E3",
"$ 	c #ABC5E3",
"% 	c #8AACD1",
"& 	c #7EA5CE",
"* 	c #9DBCE0",
"= 	c #9DBDE0",
"- 	c #729CC7",
"; 	c #79A4CE",
"> 	c #94BADF",
", 	c #96BADF",
"' 	c #709DC8",
") 	c #D5E1EF",
"! 	c #D8E5F3",
"~ 	c #75A5D1",
"{ 	c #8DB8E0",
"] 	c #8EB9E1",
"^ 	c #6E9FCC",
"/ 	c #BDD2EA",
"( 	c #BCD1E8",
"_ 	c #C5D7EA",
": 	c #C5D8EC",
"< 	c #C8DBEF",
"[ 	c #C8DCEF",
"} 	c #73A7D5",
"| 	c #88B8E4",
"1 	c #89B9E4",
"2 	c #6EA3D1",
"3 	c #A0BDDB",
"4 	c #A4C3E4",
"5 	c #A3C1E2",
"6 	c #A6C3E2",
"7 	c #A9C5E2",
"8 	c #A5C3E3",
"9 	c #BFD6EB",
"0 	c #BED4EC",
"a 	c #C0D6ED",
"b 	c #B9D3ED",
"c 	c #73ABD9",
"d 	c #84BBE8",
"e 	c #85BBE8",
"f 	c #6AA5D5",
"g 	c #578DC3",
"h 	c #A8C8E7",
"i 	c #9EC1E3",
"j 	c #9ABDE1",
"k 	c #99BBE0",
"l 	c #8DB3DB",
"m 	c #83AED8",
"n 	c #B7D1EB",
"o 	c #B4D0EA",
"p 	c #B8D2EB",
"q 	c #AFCEEA",
"r 	c #3F80C5",
"s 	c #73B0DE",
"t 	c #81BFEC",
"u 	c #7FBDED",
"v 	c #5BA3D9",
"w 	c #003E83",
"x 	c #3279C2",
"y 	c #8EB9E2",
"z 	c #9ABFE3",
"A 	c #92B8DF",
"B 	c #6FA1D2",
"C 	c #A3C4E5",
"D 	c #ABCBE8",
"E 	c #AECDEA",
"F 	c #AECFEC",
"G 	c #1665B9",
"H 	c #003067",
"I 	c #74B6E5",
"J 	c #81C5F3",
"K 	c #72BEF2",
"L 	c #63ADE0",
"M 	c #002958",
"N 	c #0B5DB3",
"O 	c #88B7E1",
"P 	c #8EB8E0",
"Q 	c #89B4DE",
"R 	c #7FACDA",
"S 	c #327ABB",
"T 	c #7DA9D3",
"U 	c #A2C5E7",
"V 	c #A4C8E8",
"W 	c #AACCEC",
"X 	c #2A76C3",
"Y 	c #002A5A",
"Z 	c #76BDEC",
"` 	c #7AC8FA",
" .	c #7AC9FB",
"..	c #70BAE9",
"+.	c #1D6BBC",
"@.	c #8AB8E2",
"#.	c #83B2DE",
"$.	c #72A7D8",
"%.	c #1C71BB",
"&.	c #82B1DB",
"*.	c #9CC2E7",
"=.	c #9FC6E9",
"-.	c #74ACE0",
";.	c #084482",
">.	c #73B6E6",
",.	c #98DBFF",
"'.	c #9CDCFF",
").	c #72B2DF",
"!.	c #104073",
"~.	c #5C9AD5",
"{.	c #81B3E0",
"].	c #4B93D2",
"^.	c #247AC5",
"/.	c #83B4E0",
"(.	c #95C0E7",
"_.	c #97C4EA",
":.	c #5993CA",
"<.	c #4080B9",
"[.	c #79B1DD",
"}.	c #75AEDC",
"|.	c #407EB4",
"1.	c #4A87BF",
"2.	c #6CA9DD",
"3.	c #3589CF",
"4.	c #2E83CB",
"5.	c #7FB4E1",
"6.	c #8EBEE8",
"7.	c #91C2EB",
"8.	c #6499C5",
"9.	c #457BA3",
"0.	c #44789D",
"a.	c #4D88BA",
"b.	c #4999DA",
"c.	c #3D90D4",
"d.	c #368AD0",
"e.	c #76B1E1",
"f.	c #88BDE8",
"g.	c #8BC2EB",
"h.	c #7FB6DE",
"i.	c #539BD1",
"j.	c #4C9DDD",
"k.	c #4496D8",
"l.	c #3C90D4",
"m.	c #63A5DC",
"n.	c #82BCEA",
"o.	c #86C1ED",
"p.	c #8AC5F0",
"q.	c #62AEE6",
"r.	c #51A2E0",
"s.	c #499BDB",
"t.	c #4495D8",
"u.	c #4F94D0",
"v.	c #79BAEB",
"w.	c #81C1EF",
"x.	c #88C6F3",
"y.	c #92CCF3",
"z.	c #83C2EC",
"A.	c #60B0EA",
"B.	c #56A7E4",
"C.	c #4FA0DF",
"D.	c #4894D3",
"E.	c #3678B4",
"F.	c #64B1EA",
"G.	c #71BBEF",
"H.	c #7DC4F4",
"I.	c #89CDFA",
"J.	c #9ED5F9",
"K.	c #97D0F5",
"L.	c #72BFF3",
"M.	c #63B3EC",
"N.	c #5BACE7",
"O.	c #54A5E2",
"P.	c #498BC1",
"Q.	c #60A4DC",
"R.	c #6BBCF2",
"S.	c #73C2F7",
"T.	c #7BCAFC",
"U.	c #86D1FF",
"V.	c #A4DDFE",
"W.	c #A0D9FD",
"X.	c #7BC8FA",
"Y.	c #6FBEF4",
"Z.	c #68B7EF",
"`.	c #5CADE9",
" +	c #6AAEE2",
".+	c #326795",
"++	c #2969A8",
"@+	c #76B9EA",
"#+	c #78C7FA",
"$+	c #7ECDFE",
"%+	c #8CD4FF",
"&+	c #99DBFF",
"*+	c #AAE2FF",
"=+	c #C8EDFF",
"-+	c #DCF2FD",
";+	c #ECF7FD",
">+	c #DCF1FD",
",+	c #C3E9FF",
"'+	c #9CDBFF",
")+	c #82D0FF",
"!+	c #7AC9FC",
"~+	c #72C1F7",
"{+	c #6BBAF1",
"]+	c #79BDED",
"^+	c #4989BB",
"/+	c #3875AC",
"(+	c #73B5E8",
"_+	c #90D5FF",
":+	c #93D9FF",
"<+	c #A2DFFF",
"[+	c #B2E6FF",
"}+	c #BDECFF",
"|+	c #C5F0FF",
"1+	c #C8F2FF",
"2+	c #C3EFFF",
"3+	c #B6E9FF",
"4+	c #A9E3FF",
"5+	c #9BDCFF",
"6+	c #8BD4FF",
"7+	c #7BCCFF",
"8+	c #81CBFA",
"9+	c #7EC0EC",
"0+	c #5692BE",
"a+	c #3F77A6",
"b+	c #63A5D8",
"c+	c #9ED2F3",
"d+	c #B4E8FF",
"e+	c #B9EBFF",
"f+	c #C7F2FF",
"g+	c #D5F8FF",
"h+	c #D9FAFF",
"i+	c #CFF5FF",
"j+	c #C0EEFF",
"k+	c #B0E5FF",
"l+	c #9FDEFF",
"m+	c #9ADBFF",
"n+	c #9DD5F8",
"o+	c #7DBCE1",
"p+	c #5992B7",
"q+	c #386688",
"r+	c #5798C7",
"s+	c #79B2D8",
"t+	c #A8D5EF",
"u+	c #CAECFA",
"v+	c #D9F6FC",
"w+	c #DDF9FD",
"x+	c #D4F4FD",
"y+	c #C9EEFD",
"z+	c #C3EAFC",
"A+	c #B4DEF5",
"B+	c #9ACAE5",
"C+	c #78B4D5",
"D+	c #56839F",
"E+	c #3E6883",
"F+	c #5487A6",
"G+	c #6AA0BF",
"H+	c #86B9D4",
"I+	c #9AC8E0",
"J+	c #A1CDE3",
"K+	c #99C6DB",
"L+	c #85B4CB",
"M+	c #739FB4",
"N+	c #5A7F92",
"                      . +                       ",
"                    @ # $ %                     ",
"                    & * = -                     ",
"                    ; > , '                     ",
"          ) !       ~ { ] ^     / ( _           ",
"        : < [ <     } | 1 2   3 4 5 6 7         ",
"      8 9 0 a b     c d e f   g h i j k l       ",
"    m n o p q r     s t u v   w x y z A A B     ",
"    C D E F G H     I J K L     M N O P Q R S   ",
"  T U V W X Y       Z `  ...        +.@.#.$.%.  ",
"  &.*.=.-.;.        >.,.'.).        !.~.{.].^.  ",
"  /.(._.:.          <.[.}.|.          1.2.3.4.  ",
"  5.6.7.8.            9.0.            a.b.c.d.  ",
"  e.f.g.h.                            i.j.k.l.  ",
"  m.n.o.p.                            q.r.s.t.  ",
"  u.v.w.x.y.                        z.A.B.C.D.  ",
"  E.F.G.H.I.J.                    K.L.M.N.O.P.  ",
"    Q.R.S.T.U.V.                W.X.Y.Z.`. +.+  ",
"    ++@+#+$+%+&+*+=+-+;+;+>+,+'+)+!+~+{+]+^+    ",
"      /+(+_+:+<+[+}+|+1+2+3+4+5+6+7+8+9+0+      ",
"        a+b+c+d+e+f+g+h+i+j+k+l+m+n+o+p+        ",
"          q+r+s+t+u+v+w+x+y+z+A+B+C+D+          ",
"              E+F+G+H+I+J+K+L+M+N+              ",
"                                                "};
