/* XPM */
static char * Aqua_Play_icon_24x24_xpm[] = {
"24 24 136 2",
"  	c None",
". 	c #C0C0C0",
"+ 	c #ECECEC",
"@ 	c #F6F6F6",
"# 	c #F5F5F5",
"$ 	c #C1C1C1",
"% 	c #A7A7A7",
"& 	c #D9D9D9",
"* 	c #BDBDBD",
"= 	c #616161",
"- 	c #262626",
"; 	c #131313",
"> 	c #242424",
", 	c #5E5E5E",
"' 	c #B9B9B9",
") 	c #D8D8D8",
"! 	c #A8A8A8",
"~ 	c #C7C7C7",
"{ 	c #515151",
"] 	c #464646",
"^ 	c #737373",
"/ 	c #969696",
"( 	c #A2A2A2",
"_ 	c #979797",
": 	c #777777",
"< 	c #484848",
"[ 	c #4F4F4F",
"} 	c #B4B4B4",
"| 	c #C9C9C9",
"1 	c #9A9A9A",
"2 	c #252525",
"3 	c #757575",
"4 	c #898989",
"5 	c #8A8A8A",
"6 	c #797979",
"7 	c #2B2B2B",
"8 	c #919191",
"9 	c #C3C3C3",
"0 	c #999999",
"a 	c #B0B0B0",
"b 	c #202020",
"c 	c #787878",
"d 	c #B7B7B7",
"e 	c #4A4A4A",
"f 	c #565656",
"g 	c #656565",
"h 	c #646464",
"i 	c #606060",
"j 	c #595959",
"k 	c #929292",
"l 	c #959595",
"m 	c #535353",
"n 	c #525252",
"o 	c #282828",
"p 	c #8E8E8E",
"q 	c #949494",
"r 	c #ABABAB",
"s 	c #4B4B4B",
"t 	c #151515",
"u 	c #3C3C3C",
"v 	c #424242",
"w 	c #3A3A3A",
"x 	c #DFDFDF",
"y 	c #F8F8F8",
"z 	c #505050",
"A 	c #434343",
"B 	c #414141",
"C 	c #3D3D3D",
"D 	c #1A1A1A",
"E 	c #ADADAD",
"F 	c #222222",
"G 	c #101010",
"H 	c #181818",
"I 	c #272727",
"J 	c #2F2F2F",
"K 	c #292929",
"L 	c #D7D7D7",
"M 	c #FFFFFF",
"N 	c #EAEAEA",
"O 	c #A1A1A1",
"P 	c #2C2C2C",
"Q 	c #191919",
"R 	c #1B1B1B",
"S 	c #141414",
"T 	c #111111",
"U 	c #D3D3D3",
"V 	c #F3F3F3",
"W 	c #BFBFBF",
"X 	c #404040",
"Y 	c #0C0C0C",
"Z 	c #A4A4A4",
"` 	c #171717",
" .	c #0E0E0E",
"..	c #D2D2D2",
"+.	c #F1F1F1",
"@.	c #3B3B3B",
"#.	c #161616",
"$.	c #0D0D0D",
"%.	c #9F9F9F",
"&.	c #E4E4E4",
"*.	c #3E3E3E",
"=.	c #1E1E1E",
"-.	c #9C9C9C",
";.	c #9B9B9B",
">.	c #121212",
",.	c #1C1C1C",
"'.	c #989898",
").	c #848484",
"!.	c #7C7C7C",
"~.	c #1D1D1D",
"{.	c #6A6A6A",
"].	c #1F1F1F",
"^.	c #727272",
"/.	c #858585",
"(.	c #8C8C8C",
"_.	c #393939",
":.	c #343434",
"<.	c #878787",
"[.	c #7B7B7B",
"}.	c #767676",
"|.	c #2A2A2A",
"1.	c #212121",
"2.	c #232323",
"3.	c #707070",
"4.	c #7A7A7A",
"5.	c #676767",
"6.	c #2E2E2E",
"7.	c #838383",
"8.	c #6F6F6F",
"9.	c #323232",
"0.	c #363636",
"a.	c #373737",
"b.	c #818181",
"c.	c #7D7D7D",
"d.	c #3F3F3F",
"e.	c #7E7E7E",
"                                                ",
"                                                ",
"                . + @ # # @ + $                 ",
"            % & * = - ; ; > , ' ) !             ",
"          ~ ' { ] ^ / ( ( _ : < [ } |           ",
"        $ 1 2 3 4 5 4 4 4 4 5 5 6 7 8 9         ",
"      0 a b 3 c : : : : : : : : : c 2 ! 1       ",
"      d e f g h g i h h h h h h h g j ] '       ",
"    k l 2 { m m [ k f [ m m m m m m n o p q     ",
"    r s t u v v w x y 8 z A B v v v C D B r     ",
"    E F G H I J K L M M N O f 2 P o Q G R !     ",
"    % G ; S t H T U M M M M V W X t S S Y (     ",
"    Z ; t ` ` H  ...M M M M +.d @.` ` #.$.%.    ",
"    ( > t H Q D G U M M &.8 *.$.` Q H #.=.-.    ",
"    ;.< t D R R >.& V ^ 7 ,.R ,.R R D t *.'.    ",
"    ).!.S R ,.~.Q {.b D ].=.=.~.~.,.R ; ^./.    ",
"      (._.].,.=.].D ].b b b b ].=.~.,.:.<.      ",
"      [.}.].|.~.b 1.1.1.1.1.1.b =.2.=.3.4.      ",
"        <.5.F 6.> F 1.F F 1.1.2.o F i 7.        ",
"          ).8.w 7 9.0.a.a.:.J o _.{.b.          ",
"            c c.5.X 7 F 1.|.d.g 4.3             ",
"                !.).e.6 6 !.b.4.                ",
"                                                ",
"                                                "};
