/* XPM */
static char * debian_sad_24x24_xpm[] = {
"24 24 50 1",
" 	c None",
".	c #060001",
"+	c #170205",
"@	c #0A0002",
"#	c #160204",
"$	c #0B0102",
"%	c #000000",
"&	c #010000",
"*	c #040001",
"=	c #020000",
"-	c #0A0102",
";	c #110104",
">	c #190105",
",	c #020001",
"'	c #030001",
")	c #0C0102",
"!	c #1D0206",
"~	c #1B0205",
"{	c #070002",
"]	c #0B0103",
"^	c #150104",
"/	c #250307",
"(	c #2E030A",
"_	c #230207",
":	c #080102",
"<	c #1C0205",
"[	c #140104",
"}	c #080001",
"|	c #30030A",
"1	c #130104",
"2	c #110103",
"3	c #260208",
"4	c #1E0206",
"5	c #610613",
"6	c #1F0206",
"7	c #100103",
"8	c #120104",
"9	c #48040E",
"0	c #240207",
"a	c #2D0309",
"b	c #1A0205",
"c	c #050001",
"d	c #250208",
"e	c #120103",
"f	c #050101",
"g	c #0E0102",
"h	c #100104",
"i	c #1D0205",
"j	c #0C0103",
"k	c #260308",
"                        ",
"                        ",
"          ..+@#         ",
"        $%&&%%%%$       ",
"       *=-     ;=&>     ",
"      ,*         '=     ",
"     ).          !%~    ",
"     {            ]     ",
"    ^^     /      .(    ",
"    ;     _       :<    ",
"    [     !       }|    ",
"    [     1       2     ",
"    ^     3       4     ",
"    1     56     7      ",
"    8      90a b7       ",
"     c                  ",
"     *d                 ",
"     ef                 ",
"      gh                ",
"       2i               ",
"        j               ",
"          k             ",
"                        ",
"                        "};
