/* XPM */
static char * Extras_Shutdown_icon_24x24_xpm[] = {
"24 24 344 2",
"  	c None",
". 	c #D43E2A",
"+ 	c #D23721",
"@ 	c #D85B4C",
"# 	c #DA6B60",
"$ 	c #DC7B74",
"% 	c #DE837D",
"& 	c #DF8983",
"* 	c #E08881",
"= 	c #DF796F",
"- 	c #DC6A5D",
"; 	c #D43D29",
"> 	c #D02911",
", 	c #D54E3D",
"' 	c #DB827F",
") 	c #D57978",
"! 	c #D47777",
"~ 	c #D57B7B",
"{ 	c #D78282",
"] 	c #DA8A8A",
"^ 	c #DD9394",
"/ 	c #E09D9E",
"( 	c #E4A7A6",
"_ 	c #E8B0AE",
": 	c #DC6C60",
"< 	c #CF230B",
"[ 	c #D1311B",
"} 	c #D65C51",
"| 	c #D47A7B",
"1 	c #CB5959",
"2 	c #CC5E5E",
"3 	c #CF6767",
"4 	c #D37171",
"5 	c #DF9898",
"6 	c #E19E9E",
"7 	c #DA8989",
"8 	c #DC9090",
"9 	c #DF9797",
"0 	c #E2A0A0",
"a 	c #EABEBF",
"b 	c #E3928B",
"c 	c #D23621",
"d 	c #D1321C",
"e 	c #D45C52",
"f 	c #CB5B5C",
"g 	c #C44646",
"h 	c #C64C4C",
"i 	c #CA5454",
"j 	c #CD5F5F",
"k 	c #D98686",
"l 	c #FEFDFD",
"m 	c #FFFEFE",
"n 	c #E09B9B",
"o 	c #DD9393",
"p 	c #DE9797",
"q 	c #E1A0A0",
"r 	c #E7B3B4",
"s 	c #E49791",
"t 	c #D23823",
"u 	c #D35042",
"v 	c #C75152",
"w 	c #C03839",
"x 	c #C23E3E",
"y 	c #F6E2E2",
"z 	c #C95050",
"A 	c #DB8989",
"B 	c #FDF8F8",
"C 	c #FDF9F9",
"D 	c #E19D9D",
"E 	c #D77C7C",
"F 	c #FCF3F3",
"G 	c #E4A9A9",
"H 	c #DF9999",
"I 	c #E2A2A2",
"J 	c #E7B4B5",
"K 	c #E28D84",
"L 	c #CF240C",
"M 	c #D23925",
"N 	c #CD6161",
"O 	c #BC2B2B",
"P 	c #BE3232",
"Q 	c #CC5959",
"R 	c #FAEEEE",
"S 	c #FFFFFF",
"T 	c #C94949",
"U 	c #DC8686",
"V 	c #E29999",
"W 	c #D87575",
"X 	c #FEFCFC",
"Y 	c #E6AEAE",
"Z 	c #E09A9A",
"` 	c #E2A1A1",
" .	c #ECC3C4",
"..	c #D8594A",
"+.	c #D35E57",
"@.	c #BD2E2E",
"#.	c #BC2626",
"$.	c #C43B3B",
"%.	c #F8E9E9",
"&.	c #CD4646",
"*.	c #DD8282",
"=.	c #FDF7F7",
"-.	c #E39696",
";.	c #D97171",
">.	c #E5A6A6",
",.	c #E19A9A",
"'.	c #E4A6A6",
").	c #E8ABA8",
"!.	c #D1301A",
"~.	c #D3402E",
"{.	c #CA4E4C",
"].	c #BA1E1E",
"^.	c #BC1C1C",
"/.	c #E9B2B2",
"(.	c #E79C9C",
"_.	c #D34A4A",
":.	c #E18181",
"<.	c #E59393",
"[.	c #DD7373",
"}.	c #E9A6A6",
"|.	c #F8E8E8",
"1.	c #E19696",
"2.	c #E4A2A2",
"3.	c #E9B2B1",
"4.	c #DA6050",
"5.	c #D34C3E",
"6.	c #C43535",
"7.	c #BE1E1E",
"8.	c #C83838",
"9.	c #FBEFEF",
"0.	c #F5D1D1",
"a.	c #D74D4D",
"b.	c #D94D4D",
"c.	c #E48080",
"d.	c #FEF8F8",
"e.	c #E89292",
"f.	c #E17272",
"g.	c #E27B7B",
"h.	c #F4CFCF",
"i.	c #FDF6F6",
"j.	c #DC7C7C",
"k.	c #CA4040",
"l.	c #C63C3C",
"m.	c #D44E41",
"n.	c #C42F2E",
"o.	c #C32020",
"p.	c #D75F5F",
"q.	c #EA9898",
"r.	c #DB4444",
"s.	c #DE4C4C",
"t.	c #E88080",
"u.	c #FEF7F7",
"v.	c #EA8B8B",
"w.	c #E25B5B",
"x.	c #DD4D4D",
"y.	c #E78686",
"z.	c #FEFBFB",
"A.	c #FEFAFA",
"B.	c #DC7272",
"C.	c #C51E1E",
"D.	c #C32828",
"E.	c #D34D42",
"F.	c #D44E42",
"G.	c #C82E2E",
"H.	c #C92424",
"I.	c #DE7070",
"J.	c #FEF9F9",
"K.	c #EA8484",
"L.	c #E14545",
"M.	c #E44D4D",
"N.	c #EC7A7A",
"O.	c #EA6767",
"P.	c #E23A3A",
"Q.	c #DF3535",
"R.	c #E56666",
"S.	c #FDF5F5",
"T.	c #E48888",
"U.	c #CC2626",
"V.	c #C92B2C",
"W.	c #D54F45",
"X.	c #D64F43",
"Y.	c #CE3434",
"Z.	c #D02929",
"`.	c #E26D6D",
" +	c #FFFDFD",
".+	c #EF8E8E",
"++	c #E74646",
"@+	c #EA4C4C",
"#+	c #EB4242",
"$+	c #F06F6F",
"%+	c #EB3D3D",
"&+	c #E94040",
"*+	c #E73D3D",
"=+	c #ED7575",
"-+	c #E78484",
";+	c #D22A2A",
">+	c #CF3030",
",+	c #D65045",
"'+	c #D75043",
")+	c #D53F3E",
"!+	c #D52D2D",
"~+	c #E15555",
"{+	c #FDF3F3",
"]+	c #F8B9B9",
"^+	c #EE4848",
"/+	c #F04646",
"(+	c #F24848",
"_+	c #F24646",
":+	c #F24949",
"<+	c #F14747",
"[+	c #EE4545",
"}+	c #F6A3A3",
"|+	c #E66C6C",
"1+	c #D82F2F",
"2+	c #D53939",
"3+	c #D85145",
"4+	c #D64938",
"5+	c #DD5351",
"6+	c #DC3232",
"7+	c #E13333",
"8+	c #FBDBDB",
"9+	c #F66D6D",
"0+	c #F64B4B",
"a+	c #F85050",
"b+	c #F85151",
"c+	c #F95151",
"d+	c #F74D4D",
"e+	c #F65E5E",
"f+	c #FEF2F2",
"g+	c #FDECEC",
"h+	c #E44040",
"i+	c #DE3535",
"j+	c #DC4A49",
"k+	c #D84F41",
"l+	c #D02E17",
"m+	c #E36C67",
"n+	c #E13A3A",
"o+	c #E73939",
"p+	c #F17171",
"q+	c #FFFCFC",
"r+	c #FC7B7B",
"s+	c #FD5C5C",
"t+	c #FD5858",
"u+	c #FD5959",
"v+	c #FC6F6F",
"w+	c #FFF0F0",
"x+	c #F59292",
"y+	c #E93939",
"z+	c #E33939",
"A+	c #E46663",
"B+	c #D43C28",
"C+	c #DA5041",
"D+	c #EB6163",
"E+	c #EB4141",
"F+	c #F14141",
"G+	c #FBA2A2",
"H+	c #FFD4D4",
"I+	c #FFB8B8",
"J+	c #FFB7B7",
"K+	c #FFCECE",
"L+	c #FDB8B8",
"M+	c #F34545",
"N+	c #EE4343",
"O+	c #EC5859",
"P+	c #DF5E53",
"Q+	c #D02D17",
"R+	c #E66861",
"S+	c #F25556",
"T+	c #F64C4C",
"U+	c #FA5555",
"V+	c #FE9B9B",
"W+	c #FFAEAE",
"X+	c #FC5959",
"Y+	c #F84E4E",
"Z+	c #F35151",
"`+	c #ED7471",
" @	c #D02F19",
".@	c #D43723",
"+@	c #F1716E",
"@@	c #F95858",
"#@	c #FD5757",
"$@	c #FF5A5A",
"%@	c #FF7A7A",
"&@	c #FFD0D0",
"*@	c #FFF4F4",
"=@	c #FFF6F6",
"-@	c #FFF7F7",
";@	c #FFF5F5",
">@	c #FFDADA",
",@	c #FF8A8A",
"'@	c #FF5C5C",
")@	c #FE5959",
"!@	c #FB5858",
"~@	c #F57372",
"{@	c #D63E2A",
"]@	c #D94534",
"^@	c #F3736F",
"/@	c #FF6D6E",
"(@	c #FF6565",
"_@	c #FF7272",
":@	c #FF8D8D",
"<@	c #FFA2A2",
"[@	c #FFA4A4",
"}@	c #FF9393",
"|@	c #FF7F7F",
"1@	c #FF7676",
"2@	c #FF6A6A",
"3@	c #FF6B6C",
"4@	c #F77875",
"5@	c #DB4B3A",
"6@	c #D33521",
"7@	c #EA6A60",
"8@	c #FF8F90",
"9@	c #FF8282",
"0@	c #FF8989",
"a@	c #FF9797",
"b@	c #FFA0A0",
"c@	c #FFA1A1",
"d@	c #FF9B9B",
"e@	c #FF8E8E",
"f@	c #FF8585",
"g@	c #FF9293",
"h@	c #F0766E",
"i@	c #D43A25",
"j@	c #CF2A13",
"k@	c #DA4836",
"l@	c #F28C86",
"m@	c #FBA2A0",
"n@	c #FDA7A5",
"o@	c #FDAFAE",
"p@	c #FDB1B0",
"q@	c #FDAAA9",
"r@	c #FBA4A2",
"s@	c #F59590",
"t@	c #DD5140",
"u@	c #CF2B14",
"v@	c #A71904",
"w@	c #BE3928",
"x@	c #D15647",
"y@	c #D66253",
"z@	c #D86456",
"A@	c #D2594A",
"B@	c #C13E2C",
"C@	c #AA1C07",
"                        .                       ",
"              + @ # $ % & * = - ;               ",
"          > , ' ) ! ~ { ] ^ / ( _ : <           ",
"        [ } | 1 2 3 4 5 6 7 8 9 0 a b c         ",
"      d e f g h i j k l m n 7 o p q r s t       ",
"      u v w x 2 y z A B C D E F G H I J K L     ",
"    M N O P Q R S T U B B V W S X Y Z `  ...    ",
"    +.@.#.$.%.S S &.*.=.B -.;.S S X >.,.'.).!.  ",
"  ~.{.].^./.S S (._.:.=.B <.[.}.S S |.1.2.3.4.  ",
"  5.6.7.8.9.S 0.a.b.c.=.d.e.f.g.h.S i.j.k.l.m.  ",
"  m.n.o.p.i.S q.r.s.t.u.d.v.w.x.y.z.A.B.C.D.E.  ",
"  F.G.H.I.J.z.K.L.M.N.X z.O.P.Q.R.S.m T.U.V.W.  ",
"  X.Y.Z.`.d. +.+++@+#+$+$+%+&+*+=+d. +-+;+>+,+  ",
"  '+)+!+~+{+S ]+^+/+(+_+_+:+<+[+}+S u.|+1+2+3+  ",
"  4+5+6+7+8+S  +9+0+a+b+c+b+d+e+f+S g+h+i+j+k+  ",
"  l+m+n+o+p+S S q+r+s+t+u+s+v+w+S S x+y+z+A+B+  ",
"    C+D+E+F+G+S S S H+I+J+K+S S S L+M+N+O+P+    ",
"    Q+R+S+T+U+V+S S S S S S S S W+X+Y+Z+`+ @    ",
"      .@+@@@#@$@%@&@*@=@-@;@>@,@'@)@!@~@{@      ",
"        ]@^@/@(@_@%@:@<@[@}@|@1@2@3@4@5@        ",
"          6@7@8@9@0@a@b@c@d@e@f@g@h@i@          ",
"            j@k@l@m@n@o@p@q@r@s@t@u@            ",
"                v@w@x@y@z@A@B@C@                ",
"                                                "};
