/* XPM */
static char * EZ_Next_icon_24x24_xpm[] = {
"24 24 57 1",
" 	c None",
".	c #000000",
"+	c #090909",
"@	c #4A4A4A",
"#	c #808080",
"$	c #848484",
"%	c #595959",
"&	c #040404",
"*	c #030303",
"=	c #0B0B0B",
"-	c #555555",
";	c #F3F3F3",
">	c #FFFFFF",
",	c #767676",
"'	c #0D0D0D",
")	c #878787",
"!	c #AEAEAE",
"~	c #8C8C8C",
"{	c #F2F2F2",
"]	c #1B1B1B",
"^	c #484848",
"/	c #EAEAEA",
"(	c #FCFCFC",
"_	c #FAFAFA",
":	c #ECECEC",
"<	c #7E7E7E",
"[	c #9C9C9C",
"}	c #252525",
"|	c #ACACAC",
"1	c #222222",
"2	c #777777",
"3	c #B7B7B7",
"4	c #828282",
"5	c #989898",
"6	c #060606",
"7	c #5B5B5B",
"8	c #D4D4D4",
"9	c #181818",
"0	c #2E2E2E",
"a	c #B5B5B5",
"b	c #BCBCBC",
"c	c #575757",
"d	c #D6D6D6",
"e	c #DADADA",
"f	c #F7F7F7",
"g	c #C1C1C1",
"h	c #909090",
"i	c #020202",
"j	c #737373",
"k	c #0C0C0C",
"l	c #CECECE",
"m	c #161616",
"n	c #8A8A8A",
"o	c #191919",
"p	c #B9B9B9",
"q	c #8F8F8F",
"r	c #2D2D2D",
"                        ",
"                        ",
"                        ",
"                        ",
"           ..           ",
"        +.@#$%&*        ",
"       =-;>>>>>,'       ",
"      =)>>>>>>>>!'      ",
"     +->>>>>>>>>>~.     ",
"     .{>>>>>>>>>>>]     ",
"     ^>>>/(>_:>>>>$.    ",
"    .<>>>[}|:12;>>3.    ",
"    .4>>>567890a>>b.    ",
"     c>>>de>fg>>>>h.    ",
"     i>>>>>>>>>>>>0     ",
"     *j>>>>>>>>>>!.     ",
"      k|>>>>>>>>lm      ",
"       'n>>>>>>!m       ",
"        .o4apqr.        ",
"          ....          ",
"                        ",
"                        ",
"                        ",
"                        "};
