/* XPM */
static char * EZ_Pause_icon_24x24_xpm[] = {
"24 24 59 1",
" 	c None",
".	c #000000",
"+	c #090909",
"@	c #4A4A4A",
"#	c #808080",
"$	c #848484",
"%	c #595959",
"&	c #040404",
"*	c #030303",
"=	c #0B0B0B",
"-	c #555555",
";	c #F3F3F3",
">	c #FFFFFF",
",	c #767676",
"'	c #0D0D0D",
")	c #878787",
"!	c #AEAEAE",
"~	c #8C8C8C",
"{	c #F2F2F2",
"]	c #F9F9F9",
"^	c #FDFDFD",
"/	c #FEFEFE",
"(	c #F8F8F8",
"_	c #1B1B1B",
":	c #484848",
"<	c #8E8E8E",
"[	c #D2D2D2",
"}	c #ECECEC",
"|	c #7E7E7E",
"1	c #606060",
"2	c #C0C0C0",
"3	c #E5E5E5",
"4	c #4C4C4C",
"5	c #F5F5F5",
"6	c #B7B7B7",
"7	c #828282",
"8	c #BCBCBC",
"9	c #575757",
"0	c #787878",
"a	c #C9C9C9",
"b	c #E9E9E9",
"c	c #676767",
"d	c #F7F7F7",
"e	c #909090",
"f	c #020202",
"g	c #F4F4F4",
"h	c #FBFBFB",
"i	c #2E2E2E",
"j	c #737373",
"k	c #0C0C0C",
"l	c #ACACAC",
"m	c #CECECE",
"n	c #161616",
"o	c #8A8A8A",
"p	c #191919",
"q	c #B5B5B5",
"r	c #B9B9B9",
"s	c #8F8F8F",
"t	c #2D2D2D",
"                        ",
"                        ",
"                        ",
"                        ",
"           ..           ",
"        +.@#$%&*        ",
"       =-;>>>>>,'       ",
"      =)>>>>>>>>!'      ",
"     +->>>>>>>>>>~.     ",
"     .{>>>]^/(>>>>_     ",
"     :>>>/<[}#(>>>$.    ",
"    .|>>>/12345>>>6.    ",
"    .7>>>/12345>>>8.    ",
"     9>>>/0abcd>>>e.    ",
"     f>>>>gh^{/>>>i     ",
"     *j>>>>>>>>>>!.     ",
"      kl>>>>>>>>mn      ",
"       'o>>>>>>!n       ",
"        .p7qrst.        ",
"          ....          ",
"                        ",
"                        ",
"                        ",
"                        "};
