/* XPM */
static char * EZ_Previous_icon_24x24_xpm[] = {
"24 24 58 1",
" 	c None",
".	c #000000",
"+	c #090909",
"@	c #4A4A4A",
"#	c #808080",
"$	c #848484",
"%	c #595959",
"&	c #040404",
"*	c #030303",
"=	c #0B0B0B",
"-	c #555555",
";	c #F3F3F3",
">	c #FFFFFF",
",	c #767676",
"'	c #0D0D0D",
")	c #878787",
"!	c #AEAEAE",
"~	c #8C8C8C",
"{	c #F2F2F2",
"]	c #1B1B1B",
"^	c #484848",
"/	c #FCFCFC",
"(	c #EAEAEA",
"_	c #DCDCDC",
":	c #7E7E7E",
"<	c #ACACAC",
"[	c #252525",
"}	c #9D9D9D",
"|	c #E3E3E3",
"1	c #515151",
"2	c #303030",
"3	c #B7B7B7",
"4	c #828282",
"5	c #ECECEC",
"6	c #5B5B5B",
"7	c #060606",
"8	c #979797",
"9	c #1E1E1E",
"0	c #262626",
"a	c #BCBCBC",
"b	c #575757",
"c	c #DADADA",
"d	c #D6D6D6",
"e	c #F7F7F7",
"f	c #B4B4B4",
"g	c #909090",
"h	c #020202",
"i	c #2E2E2E",
"j	c #737373",
"k	c #0C0C0C",
"l	c #CECECE",
"m	c #161616",
"n	c #8A8A8A",
"o	c #191919",
"p	c #B5B5B5",
"q	c #B9B9B9",
"r	c #8F8F8F",
"s	c #2D2D2D",
"                        ",
"                        ",
"                        ",
"                        ",
"           ..           ",
"        +.@#$%&*        ",
"       =-;>>>>>,'       ",
"      =)>>>>>>>>!'      ",
"     +->>>>>>>>>>~.     ",
"     .{>>>>>>>>>>>]     ",
"     ^>>>>/(>>_>>>$.    ",
"    .:>>><[}|12>>>3.    ",
"    .4>>567}890>>>a.    ",
"     b>>>>cd>ef>>>g.    ",
"     h>>>>>>>>>>>>i     ",
"     *j>>>>>>>>>>!.     ",
"      k<>>>>>>>>lm      ",
"       'n>>>>>>!m       ",
"        .o4pqrs.        ",
"          ....          ",
"                        ",
"                        ",
"                        ",
"                        "};
