/* XPM */
static char * EZ_Play_icon_24x24_xpm[] = {
"24 24 56 1",
" 	c None",
".	c #000000",
"+	c #090909",
"@	c #4A4A4A",
"#	c #808080",
"$	c #848484",
"%	c #595959",
"&	c #040404",
"*	c #030303",
"=	c #0B0B0B",
"-	c #555555",
";	c #F3F3F3",
">	c #FFFFFF",
",	c #767676",
"'	c #0D0D0D",
")	c #878787",
"!	c #AEAEAE",
"~	c #8C8C8C",
"{	c #F2F2F2",
"]	c #FDFDFD",
"^	c #1B1B1B",
"/	c #484848",
"(	c #EEEEEE",
"_	c #515151",
":	c #838383",
"<	c #DCDCDC",
"[	c #7E7E7E",
"}	c #EDEDED",
"|	c #262626",
"1	c #010101",
"2	c #161616",
"3	c #5D5D5D",
"4	c #E3E3E3",
"5	c #B7B7B7",
"6	c #828282",
"7	c #151515",
"8	c #585858",
"9	c #E0E0E0",
"0	c #BCBCBC",
"a	c #575757",
"b	c #4E4E4E",
"c	c #818181",
"d	c #DADADA",
"e	c #909090",
"f	c #020202",
"g	c #2E2E2E",
"h	c #737373",
"i	c #0C0C0C",
"j	c #ACACAC",
"k	c #CECECE",
"l	c #8A8A8A",
"m	c #191919",
"n	c #B5B5B5",
"o	c #B9B9B9",
"p	c #8F8F8F",
"q	c #2D2D2D",
"                        ",
"                        ",
"                        ",
"                        ",
"           ..           ",
"        +.@#$%&*        ",
"       =-;>>>>>,'       ",
"      =)>>>>>>>>!'      ",
"     +->>>>>>>>>>~.     ",
"     .{>>]{>>>>>>>^     ",
"     />>>(_:<>>>>>$.    ",
"    .[>>>}|1234>>>5.    ",
"    .6>>>}|1789>>>0.    ",
"     a>>>(bcd>>>>>e.    ",
"     f>>>]{>>>>>>>g     ",
"     *h>>>>>>>>>>!.     ",
"      ij>>>>>>>>k2      ",
"       'l>>>>>>!2       ",
"        .m6nopq.        ",
"          ....          ",
"                        ",
"                        ",
"                        ",
"                        "};
