/* XPM */
static char * EZ_Stop_icon_24x24_xpm[] = {
"24 24 57 1",
" 	c None",
".	c #000000",
"+	c #090909",
"@	c #4A4A4A",
"#	c #808080",
"$	c #848484",
"%	c #595959",
"&	c #040404",
"*	c #030303",
"=	c #0B0B0B",
"-	c #555555",
";	c #F3F3F3",
">	c #FFFFFF",
",	c #767676",
"'	c #0D0D0D",
")	c #878787",
"!	c #AEAEAE",
"~	c #8C8C8C",
"{	c #F2F2F2",
"]	c #F8F8F8",
"^	c #F5F5F5",
"/	c #F7F7F7",
"(	c #FEFEFE",
"_	c #1B1B1B",
":	c #484848",
"<	c #797979",
"[	c #6C6C6C",
"}	c #F4F4F4",
"|	c #7E7E7E",
"1	c #414141",
"2	c #2F2F2F",
"3	c #EFEFEF",
"4	c #B7B7B7",
"5	c #828282",
"6	c #303030",
"7	c #BCBCBC",
"8	c #575757",
"9	c #5E5E5E",
"0	c #262626",
"a	c #272727",
"b	c #4F4F4F",
"c	c #909090",
"d	c #020202",
"e	c #EDEDED",
"f	c #F0F0F0",
"g	c #2E2E2E",
"h	c #737373",
"i	c #0C0C0C",
"j	c #ACACAC",
"k	c #CECECE",
"l	c #161616",
"m	c #8A8A8A",
"n	c #191919",
"o	c #B5B5B5",
"p	c #B9B9B9",
"q	c #8F8F8F",
"r	c #2D2D2D",
"                        ",
"                        ",
"                        ",
"                        ",
"           ..           ",
"        +.@#$%&*        ",
"       =-;>>>>>,'       ",
"      =)>>>>>>>>!'      ",
"     +->>>>>>>>>>~.     ",
"     .{>>>]^^/(>>>_     ",
"     :>>>/<@@[}>>>$.    ",
"    .|>>>;1..23>>>4.    ",
"    .5>>>;1..63>>>7.    ",
"     8>>>^90ab{>>>c.    ",
"     d>>>({eef(>>>g     ",
"     *h>>>>>>>>>>!.     ",
"      ij>>>>>>>>kl      ",
"       'm>>>>>>!l       ",
"        .n5opqr.        ",
"          ....          ",
"                        ",
"                        ",
"                        ",
"                        "};
