#define full_width 22
#define full_height 22
static unsigned char full_bits[] = {
   0x00, 0x00, 0x00, 0x00, 0x00, 0x00, 0x00, 0x00, 0x00, 0x00, 0x00, 0x00,
   0xf0, 0xff, 0x03, 0xf0, 0xff, 0x03, 0xf0, 0xff, 0x03, 0x30, 0x00, 0x02,
   0x30, 0x00, 0x02, 0x30, 0x00, 0x02, 0x30, 0x00, 0x02, 0x30, 0x00, 0x02,
   0x30, 0x00, 0x02, 0x30, 0x00, 0x02, 0x30, 0x00, 0x02, 0x30, 0x00, 0x02,
   0x30, 0x00, 0x02, 0x30, 0x00, 0x02, 0xf0, 0xff, 0x03, 0xf0, 0xff, 0x03,
   0x00, 0x00, 0x00, 0x00, 0x00, 0x00 };
