/* XPM */
static char * fullscreen_trans_xpm[] = {
"22 22 2 1",
" 	c None",
".	c #DCDCCC",
"......................",
".                    .",
".                    .",
".      ..........    .",
".      ..........    .",
".      ..            .",
".      ..            .",
".      ..            .",
".      ..            .",
".      ..            .",
".      .........     .",
".      .........     .",
".      ..            .",
".      ..            .",
".      ..            .",
".      ..            .",
".      ..            .",
".      ..            .",
".      ..            .",
".      ..            .",
".                    .",
"......................"};
