/* XPM */
static char * fullscreen_xpm[] = {
"24 24 2 1",
" 	c None",
".	c #DCDCCC",
"                        ",
" ...................... ",
" ...................... ",
" .......         ...... ",
" .......         ...... ",
" ....... .............. ",
" ....... .............. ",
" ....... .............. ",
" ....... .............. ",
" ....... .............. ",
" ....... .............. ",
" .......        ....... ",
" ....... .............. ",
" ....... .............. ",
" ....... .............. ",
" ....... .............. ",
" ....... .............. ",
" ....... .............. ",
" ....... .............. ",
" ....... .............. ",
" ....... .............. ",
" ...................... ",
" ...................... ",
"                        "};
