/* XPM */
static char * kcm_sound_icon_24x24_xpm[] = {
"24 24 350 2",
"  	c None",
". 	c #673401",
"+ 	c #805015",
"@ 	c #926525",
"# 	c #9D7332",
"$ 	c #B38E4D",
"% 	c #B08B49",
"& 	c #B49251",
"* 	c #BC9E5E",
"= 	c #C3A666",
"- 	c #C3A665",
"; 	c #BBA064",
"> 	c #B29760",
", 	c #B79960",
"' 	c #B1935A",
") 	c #A4844F",
"! 	c #9B7944",
"~ 	c #916933",
"{ 	c #784B17",
"] 	c #633000",
"^ 	c #673400",
"/ 	c #916322",
"( 	c #D6B25D",
"_ 	c #D0B366",
": 	c #655B3B",
"< 	c #D7BC71",
"[ 	c #E6CD80",
"} 	c #EFDA90",
"| 	c #DAC788",
"1 	c #8F8B76",
"2 	c #6C6B64",
"3 	c #686761",
"4 	c #72716A",
"5 	c #ACA88B",
"6 	c #F5EEB4",
"7 	c #F2E7A9",
"8 	c #C0B585",
"9 	c #ECEAB9",
"0 	c #5D2900",
"a 	c #704008",
"b 	c #6D3D05",
"c 	c #BE9442",
"d 	c #E3C87A",
"e 	c #D1B56B",
"f 	c #DDBD69",
"g 	c #E5CB7F",
"h 	c #C1AF7A",
"i 	c #5E5E5E",
"j 	c #4D4D4E",
"k 	c #545454",
"l 	c #5A5A5A",
"m 	c #575757",
"n 	c #4E4E50",
"o 	c #676764",
"p 	c #D7CC97",
"q 	c #B5AE80",
"r 	c #F0F0BD",
"s 	c #6B3A09",
"t 	c #632F00",
"u 	c #7A4E10",
"v 	c #794B0F",
"w 	c #734107",
"x 	c #E8CF82",
"y 	c #DCB861",
"z 	c #DBB760",
"A 	c #D9C37E",
"B 	c #66635C",
"C 	c #535354",
"D 	c #636363",
"E 	c #686868",
"F 	c #676767",
"G 	c #666665",
"H 	c #595959",
"I 	c #5E5D5A",
"J 	c #D6CFA0",
"K 	c #FFFCC1",
"L 	c #774B19",
"M 	c #633100",
"N 	c #855B19",
"O 	c #7C4E11",
"P 	c #704007",
"Q 	c #A07735",
"R 	c #DAB153",
"S 	c #DAB256",
"T 	c #A1936B",
"U 	c #4F5053",
"V 	c #666666",
"W 	c #6C6C6C",
"X 	c #787568",
"Y 	c #F3EBB2",
"Z 	c #7D5320",
"` 	c #6C3B05",
" .	c #8A601C",
"..	c #7B4E11",
"+.	c #865C1A",
"@.	c #703E06",
"#.	c #C3963D",
"$.	c #DAAF4D",
"%.	c #6F6858",
"&.	c #555657",
"*.	c #6B6B6B",
"=.	c #787878",
"-.	c #7C7C7C",
";.	c #797979",
">.	c #7E7E7E",
",.	c #818181",
"'.	c #5A5B5E",
").	c #D3CA98",
"!.	c #835924",
"~.	c #8A621C",
"{.	c #7D5113",
"].	c #8A611C",
"^.	c #815615",
"/.	c #98661D",
"(.	c #D7A742",
"_.	c #605C54",
":.	c #616263",
"<.	c #6F6F6F",
"[.	c #767676",
"}.	c #B1B1B1",
"|.	c #B3B3B3",
"1.	c #9B9B9B",
"2.	c #ABABAB",
"3.	c #909090",
"4.	c #979797",
"5.	c #757577",
"6.	c #989376",
"7.	c #895F26",
"8.	c #704009",
"9.	c #8D641E",
"0.	c #89601B",
"a.	c #8B631D",
"b.	c #7D4D0F",
"c.	c #CB9835",
"d.	c #6C624E",
"e.	c #727375",
"f.	c #808080",
"g.	c #8E8E8E",
"h.	c #AFAFAF",
"i.	c #2A2A2A",
"j.	c #E1E1E1",
"k.	c #7F7F7F",
"l.	c #909092",
"m.	c #807C68",
"n.	c #855820",
"o.	c #562A00",
"p.	c #75460B",
"q.	c #89601C",
"r.	c #916A22",
"s.	c #7B5012",
"t.	c #AC7920",
"u.	c #937943",
"v.	c #75777B",
"w.	c #939393",
"x.	c #9F9F9F",
"y.	c #A3A3A3",
"z.	c #5F5F5F",
"A.	c #707070",
"B.	c #BBBBBB",
"C.	c #BFBFBF",
"D.	c #9D9D9F",
"E.	c #888268",
"F.	c #7D5018",
"G.	c #613201",
"H.	c #895F1B",
"I.	c #946E24",
"J.	c #8F6720",
"K.	c #79480A",
"L.	c #C59733",
"M.	c #6E6A63",
"N.	c #A6A7A7",
"O.	c #AEAEAE",
"P.	c #B8B8B8",
"Q.	c #8D8D8D",
"R.	c #A1A1A1",
"S.	c #CCCCCC",
"T.	c #D1D1D1",
"U.	c #8A8B8F",
"V.	c #AFA06F",
"W.	c #71410C",
"X.	c #784B0F",
"Y.	c #967026",
"Z.	c #967126",
"`.	c #76490E",
" +	c #B98521",
".+	c #917638",
"++	c #898989",
"@+	c #C5C5C5",
"#+	c #C8C8C8",
"$+	c #BABABA",
"%+	c #CACACA",
"&+	c #E0E0E0",
"*+	c #CACACB",
"=+	c #747168",
"-+	c #D8BE72",
";+	c #612F00",
">+	c #663704",
",+	c #956E24",
"'+	c #8B621D",
")+	c #9A7427",
"!+	c #855B18",
"~+	c #8C590E",
"{+	c #E7BE56",
"]+	c #79673E",
"^+	c #868581",
"/+	c #C9C9CA",
"(+	c #D9D9DA",
"_+	c #E5E5E5",
":+	c #E2E2E2",
"<+	c #84827D",
"[+	c #9D864E",
"}+	c #DCBA65",
"|+	c #592800",
"1+	c #885C18",
"2+	c #926A21",
"3+	c #9A7325",
"4+	c #9A7225",
"5+	c #7D4E0F",
"6+	c #D9B458",
"7+	c #DDAB33",
"8+	c #A47F2B",
"9+	c #837048",
"0+	c #918C7F",
"a+	c #938F86",
"b+	c #8B8578",
"c+	c #827252",
"d+	c #A38540",
"e+	c #DEB658",
"f+	c #C7A04D",
"g+	c #522500",
"h+	c #6F4007",
"i+	c #A17928",
"j+	c #9C7526",
"k+	c #A37B29",
"l+	c #90641D",
"m+	c #C19844",
"n+	c #DAA82C",
"o+	c #D7A428",
"p+	c #D7AA3F",
"q+	c #BEA462",
"r+	c #A3813E",
"s+	c #BD9138",
"t+	c #CC9D3B",
"u+	c #D3A645",
"v+	c #D6AD4E",
"w+	c #B28536",
"x+	c #4B2200",
"y+	c #5C2B00",
"z+	c #A67B27",
"A+	c #A47A28",
"B+	c #A87E2A",
"C+	c #A17625",
"D+	c #AA7B22",
"E+	c #DDAA25",
"F+	c #D8A729",
"G+	c #917F55",
"H+	c #525457",
"I+	c #54565A",
"J+	c #5B5B5A",
"K+	c #A88642",
"L+	c #CF9E3A",
"M+	c #D4A644",
"N+	c #9A6A22",
"O+	c #916219",
"P+	c #AF842D",
"Q+	c #AA7F2A",
"R+	c #A87C28",
"S+	c #A06D10",
"T+	c #E0AC1E",
"U+	c #BF9932",
"V+	c #56585E",
"W+	c #646465",
"X+	c #616161",
"Y+	c #656566",
"Z+	c #5F6064",
"`+	c #AE883B",
" @	c #D5A33A",
".@	c #834F10",
"+@	c #804F0F",
"@@	c #B98D30",
"#@	c #B0842C",
"$@	c #AF822A",
"%@	c #9A6811",
"&@	c #E1AD18",
"*@	c #A18742",
"=@	c #5A5C61",
"-@	c #7B7B7B",
";@	c #CECECE",
">@	c #8E8E8F",
",@	c #756A51",
"'@	c #D6A02E",
")@	c #6F3D06",
"!@	c #76450A",
"~@	c #C09232",
"{@	c #BB8C2E",
"]@	c #B7882C",
"^@	c #966412",
"/@	c #E1AD13",
"(@	c #B49745",
"_@	c #717379",
":@	c #BEBEBE",
"<@	c #6D6D6D",
"[@	c #787163",
"}@	c #C79122",
"|@	c #613504",
"1@	c #AD7C25",
"2@	c #C49431",
"3@	c #BF8F2F",
"4@	c #936113",
"5@	c #DFAC10",
"6@	c #DBAF2F",
"7@	c #8C856A",
"8@	c #BCBDBE",
"9@	c #C8CACF",
"0@	c #887442",
"a@	c #B88218",
"b@	c #4F2B02",
"c@	c #5B2F02",
"d@	c #82500F",
"e@	c #BB892B",
"f@	c #936014",
"g@	c #E2AF0E",
"h@	c #EDBA15",
"i@	c #C9A22C",
"j@	c #89847B",
"k@	c #B8BAC2",
"l@	c #B2B6BF",
"m@	c #8B7D5B",
"n@	c #D8A622",
"o@	c #9F6B11",
"p@	c #5D2E00",
"q@	c #6F3D05",
"r@	c #C59208",
"s@	c #D5A41B",
"t@	c #CEA347",
"u@	c #DEAA18",
"v@	c #B58A11",
"w@	c #B88C13",
"x@	c #DAA618",
"y@	c #D29F1C",
"z@	c #83530A",
"A@	c #401A00",
"B@	c #421B00",
"C@	c #451D00",
"D@	c #4B2400",
"E@	c #562E00",
"F@	c #5D3401",
"G@	c #613803",
"H@	c #653C05",
"I@	c #4F2A01",
"                                                ",
"      . + @ # $ % & * = - ; > , ' ) ! ~ { ]     ",
"      ^ / ( _ : < [ } | 1 2 3 4 5 6 7 8 9 0     ",
"      a b c d e f g h i j k l m n o p q r s     ",
"    t u v w x y z A B C D E F F G H I J K L     ",
"    M N O P Q R S T U D V V V V F W E X Y Z     ",
"    `  ...+.@.#.$.%.&.V V *.=.-.;.>.,.'.).!.    ",
"    v ~.{.].^./.(._.:.<.[.}.|.1.2.3.4.5.6.7.    ",
"    8.9.^.0.a.b.c.d.e.f.g.h.i.j.k.2.2.l.m.n.    ",
"    o.p.q.r.+.s.t.u.v.w.x.y.z.A.*.B.C.D.E.F.    ",
"      G.H.I.0.J.K.L.M.N.O.P.4.Q.R.S.T.U.V.W.    ",
"        X.Y.a.Z.`. +.+++@+#+$+O.%+&+*+=+-+;+    ",
"        >+,+'+)+!+~+{+]+^+/+(+_+:+/+<+[+}+|+    ",
"          1+2+3+4+5+6+7+8+9+0+a+b+c+d+e+f+g+    ",
"          h+i+j+k+l+m+n+o+p+q+r+s+t+u+v+w+x+    ",
"          y+z+A+B+C+D+E+F+G+H+I+J+K+L+M+N+      ",
"            O+P+Q+R+S+T+U+V+W+X+Y+Z+`+ @.@      ",
"            +@@@#@$@%@&@*@=@-@;@x.>@,@'@)@      ",
"            !@~@{@]@^@/@(@_@:@<@h.$+[@}@|@      ",
"            ` 1@2@3@4@5@6@7@8@}.C.9@0@a@b@      ",
"              c@d@e@f@g@h@i@j@k@l@m@n@o@        ",
"                  p@q@r@s@t@u@v@w@x@y@z@        ",
"                      A@B@C@D@E@F@G@H@I@        ",
"                                                "};
