/* XPM */
static char * LH2_Play_icon_24x24_xpm[] = {
"24 24 114 2",
"  	c None",
". 	c #B9B9B9",
"+ 	c #CECECE",
"@ 	c #DDDDDD",
"# 	c #DEDEDE",
"$ 	c #D0D0D0",
"% 	c #BBBBBB",
"& 	c #8E8E8E",
"* 	c #C6C6C6",
"= 	c #E6E6E6",
"- 	c #F2F2F2",
"; 	c #F6F6F6",
"> 	c #F5F5F5",
", 	c #E8E8E8",
"' 	c #CACACA",
") 	c #979797",
"! 	c #D7D7D7",
"~ 	c #EAEAEA",
"{ 	c #ECECEC",
"] 	c #EDEDED",
"^ 	c #EBEBEB",
"/ 	c #DBDBDB",
"( 	c #A0A0A0",
"_ 	c #D2D2D2",
": 	c #E5E5E5",
"< 	c #E7E7E7",
"[ 	c #E9E9E9",
"} 	c #D6D6D6",
"| 	c #BDBDBD",
"1 	c #DCDCDC",
"2 	c #DFDFDF",
"3 	c #E0E0E0",
"4 	c #E2E2E2",
"5 	c #E3E3E3",
"6 	c #E4E4E4",
"7 	c #C1C1C1",
"8 	c #A3A3A3",
"9 	c #CDCDCD",
"0 	c #D8D8D8",
"a 	c #D1D1D1",
"b 	c #A5A5A5",
"c 	c #ACACAC",
"d 	c #CFCFCF",
"e 	c #D3D3D3",
"f 	c #D9D9D9",
"g 	c #939393",
"h 	c #DADADA",
"i 	c #B0B0B0",
"j 	c #B3B3B3",
"k 	c #CBCBCB",
"l 	c #D5D5D5",
"m 	c #BEBEBE",
"n 	c #000000",
"o 	c #2F2F2F",
"p 	c #7D7D7D",
"q 	c #C8C8C8",
"r 	c #D4D4D4",
"s 	c #CCCCCC",
"t 	c #BABABA",
"u 	c #B7B7B7",
"v 	c #BCBCBC",
"w 	c #010101",
"x 	c #030303",
"y 	c #151515",
"z 	c #656565",
"A 	c #BFBFBF",
"B 	c #A1A1A1",
"C 	c #B5B5B5",
"D 	c #C7C7C7",
"E 	c #050505",
"F 	c #1C1C1C",
"G 	c #767676",
"H 	c #C2C2C2",
"I 	c #9E9E9E",
"J 	c #AAAAAA",
"K 	c #C3C3C3",
"L 	c #B6B6B6",
"M 	c #363636",
"N 	c #818181",
"O 	c #C9C9C9",
"P 	c #C4C4C4",
"Q 	c #B1B1B1",
"R 	c #9B9B9B",
"S 	c #959595",
"T 	c #C5C5C5",
"U 	c #989898",
"V 	c #B4B4B4",
"W 	c #949494",
"X 	c #C0C0C0",
"Y 	c #B2B2B2",
"Z 	c #B8B8B8",
"` 	c #EFEFEF",
" .	c #9A9A9A",
"..	c #A7A7A7",
"+.	c #A9A9A9",
"@.	c #8F8F8F",
"#.	c #A4A4A4",
"$.	c #ADADAD",
"%.	c #929292",
"&.	c #909090",
"*.	c #969696",
"=.	c #ABABAB",
"-.	c #FDFDFD",
";.	c #A6A6A6",
">.	c #828282",
",.	c #9C9C9C",
"'.	c #9D9D9D",
").	c #919191",
"!.	c #838383",
"~.	c #9F9F9F",
"{.	c #AFAFAF",
"].	c #8B8B8B",
"^.	c #FBFBFB",
"/.	c #FCFCFC",
"                                                ",
"                                                ",
"                                                ",
"                  . + @ # $ % &                 ",
"              * = - ; > > > - , '               ",
"          ) ! ~ { { ] ] ] ] { { ^ / (           ",
"          _ : : = < < , [ , , = : < } (         ",
"        | 1 2 3 4 5 6 6 6 6 5 4 3 2 @ 7         ",
"      8 9 ! / 1 @ 2 5 3 3 3 2 # 1 / 0 a b       ",
"      c d e } 0 f + g $ # 1 / h 0 ! e $ i       ",
"      j k d _ l } m n o p q 2 ! r e $ s t       ",
"      u * k d a e v n w x y z k _ d s * A B     ",
"      C 7 D k + $ t n n E F G d d s q H v I     ",
"      J m K q k 9 L n M N q l 9 s O P A Q       ",
"      R . A K D ' 7 S T d 9 s ' q P A t B       ",
"      U Q . m H T D ' O O q q * H A t V W       ",
"      X I Y Z v A H K P P P H X | . V B V       ",
"      `  ...i C . % | A A | % t L Q +.) ~       ",
"        l @.#.c i j V L u C j i $.b %.k         ",
"          $ &.*.b J c c c =.J ..) &.D -.        ",
"            , ;.>.&.,.( ( '.).!.~.4 -.          ",
"              -.4 {.).].].@.J @ ^.              ",
"                    /.- - ^.                    ",
"                                                "};
