/* XPM */
static char * NN_Play_icon_24x24_xpm[] = {
"24 24 241 2",
"  	c None",
". 	c #373737",
"+ 	c #4C4D4E",
"@ 	c #5B5957",
"# 	c #615D57",
"$ 	c #5F5A52",
"% 	c #5C564E",
"& 	c #56514B",
"* 	c #494745",
"= 	c #373738",
"- 	c #5B5C5E",
"; 	c #787575",
"> 	c #9D8B6D",
", 	c #BD9A5A",
"' 	c #D3A34D",
") 	c #DFA947",
"! 	c #DEA543",
"~ 	c #CC973F",
"{ 	c #AB7F3C",
"] 	c #775E3A",
"^ 	c #3F3B39",
"/ 	c #333436",
"( 	c #676767",
"_ 	c #97938F",
": 	c #CDA45E",
"< 	c #F2BD51",
"[ 	c #F9C04A",
"} 	c #FABD44",
"| 	c #F8BA3F",
"1 	c #F8B73D",
"2 	c #F5B33A",
"3 	c #F1AF38",
"4 	c #E3A336",
"5 	c #B27D2D",
"6 	c #403830",
"7 	c #343536",
"8 	c #5A5B5D",
"9 	c #D6A650",
"0 	c #FDC851",
"a 	c #FABF45",
"b 	c #FABC40",
"c 	c #FCBA3B",
"d 	c #FDB737",
"e 	c #FBB535",
"f 	c #FAB233",
"g 	c #F7AF31",
"h 	c #F2A930",
"i 	c #EDA52F",
"j 	c #C38122",
"k 	c #3B3229",
"l 	c #2B2C2D",
"m 	c #787574",
"n 	c #CEA55C",
"o 	c #FABF44",
"p 	c #FCBC3E",
"q 	c #FDBA38",
"r 	c #FEB733",
"s 	c #FFB42F",
"t 	c #FFB22D",
"u 	c #FDB02C",
"v 	c #FCAD2B",
"w 	c #F9AA2A",
"x 	c #F2A429",
"y 	c #E89D29",
"z 	c #AA6F1D",
"A 	c #2D2824",
"B 	c #9F896A",
"C 	c #F3BD50",
"D 	c #FEBA37",
"E 	c #FFBA32",
"F 	c #FFB92D",
"G 	c #FFB229",
"H 	c #FFAF27",
"I 	c #FFAD25",
"J 	c #FEAB25",
"K 	c #FCA925",
"L 	c #F8A425",
"M 	c #EF9D23",
"N 	c #D88C20",
"O 	c #5F3F17",
"P 	c #232323",
"Q 	c #5B5856",
"R 	c #C09A57",
"S 	c #FFB932",
"T 	c #BA8420",
"U 	c #735012",
"V 	c #E69D20",
"W 	c #FEAC20",
"X 	c #FFAB20",
"Y 	c #FFA81F",
"Z 	c #FEA61F",
"` 	c #FBA320",
" .	c #F49D1F",
"..	c #E5921E",
"+.	c #945C13",
"@.	c #24211D",
"#.	c #615D56",
"$.	c #D6A449",
"%.	c #F9BD44",
"&.	c #FFB62D",
"*.	c #B47D1C",
"=.	c #000000",
"-.	c #191204",
";.	c #784F0E",
">.	c #D98E18",
",.	c #FFAB1C",
"'.	c #FFA51D",
").	c #FDA11C",
"!.	c #F79B1D",
"~.	c #E9921A",
"{.	c #BC7214",
"].	c #1F180F",
"^.	c #1F1F1F",
"/.	c #605A51",
"(.	c #E3AA42",
"_.	c #F8BA40",
":.	c #FFB429",
"<.	c #B47B19",
"[.	c #010102",
"}.	c #100B03",
"|.	c #65410B",
"1.	c #ED9618",
"2.	c #FFA01A",
"3.	c #F89A19",
"4.	c #EB9016",
"5.	c #CB7A13",
"6.	c #231608",
"7.	c #1A1B1B",
"8.	c #363636",
"9.	c #5D574D",
"0.	c #E3A73F",
"a.	c #FFB127",
"b.	c #B47A18",
"c.	c #020202",
"d.	c #000102",
"e.	c #070502",
"f.	c #1F1404",
"g.	c #A2650F",
"h.	c #FFA017",
"i.	c #F89716",
"j.	c #E98D14",
"k.	c #C97711",
"l.	c #211305",
"m.	c #171818",
"n.	c #57524B",
"o.	c #D29A3A",
"p.	c #FFAF26",
"q.	c #B57817",
"r.	c #000001",
"s.	c #432B07",
"t.	c #A4670E",
"u.	c #FE9E16",
"v.	c #FFA115",
"w.	c #FC9914",
"x.	c #F69313",
"y.	c #E58812",
"z.	c #B96A0C",
"A.	c #160E05",
"B.	c #171717",
"C.	c #4A4744",
"D.	c #B18238",
"E.	c #F1AF37",
"F.	c #FFAC25",
"G.	c #B17516",
"H.	c #201505",
"I.	c #C47D14",
"J.	c #F49A15",
"K.	c #FFA016",
"L.	c #FF9D14",
"M.	c #FE9913",
"N.	c #FB9613",
"O.	c #F18E12",
"P.	c #DD800E",
"Q.	c #905007",
"R.	c #0F0B07",
"S.	c #363637",
"T.	c #7E6137",
"U.	c #E5A435",
"V.	c #F2AA30",
"W.	c #FDA925",
"X.	c #F39F1E",
"Y.	c #FFA61D",
"Z.	c #FFA21A",
"`.	c #FF9E17",
" +	c #FF9D15",
".+	c #FC9613",
"++	c #F69111",
"@+	c #E8870E",
"#+	c #C9730A",
"$+	c #552E03",
"%+	c #0C0C0C",
"&+	c #423C38",
"*+	c #BA812B",
"=+	c #EBA42F",
"-+	c #FCA420",
";+	c #FEA11C",
">+	c #FD9E19",
",+	c #FE9C16",
"'+	c #FD9914",
")+	c #EB880E",
"!+	c #D67A0B",
"~+	c #9C5605",
"{+	c #140C04",
"]+	c #0D0E0F",
"^+	c #313334",
"/+	c #463B2D",
"(+	c #CD8825",
"_+	c #E79C29",
":+	c #B26206",
"<+	c #281605",
"[+	c #060708",
"}+	c #423426",
"|+	c #B1741E",
"1+	c #D98D21",
"2+	c #DC800E",
"3+	c #9E5705",
"4+	c #291705",
"5+	c #030406",
"6+	c #2A2B2D",
"7+	c #302922",
"8+	c #674316",
"9+	c #9B6013",
"0+	c #C17614",
"a+	c #CD7C14",
"b+	c #CB7911",
"c+	c #BB6C0C",
"d+	c #945307",
"e+	c #572F03",
"f+	c #150C03",
"g+	c #050708",
"h+	c #222222",
"i+	c #24201B",
"j+	c #20170E",
"k+	c #261607",
"l+	c #241403",
"m+	c #180E04",
"n+	c #100B07",
"o+	c #0B0A0A",
"p+	c #191A1A",
"q+	c #161717",
"r+	c #161616",
"                                                ",
"                                                ",
"                      . .                       ",
"                + @ # $ % & * =                 ",
"            - ; > , ' ) ! ~ { ] ^ /             ",
"          ( _ : < [ } | 1 2 3 4 5 6 7           ",
"        8 _ 9 0 a b c d e f g h i j k l         ",
"        m n 0 o p q r s t u v w x y z A         ",
"      + B C a p D E F G H I J K L M N O P       ",
"      Q R [ b q S T U V W X Y Z `  ...+.@.      ",
"      #.$.%.c r &.*.=.-.;.>.,.'.).!.~.{.].^.    ",
"    . /.(._.d s :.<.=.[.[.}.|.1.2.3.4.5.6.7.    ",
"    8.9.0.1 e t a.b.=.c.d.e.f.g.h.i.j.k.l.m.    ",
"      n.o.2 f u p.q.=.r.s.t.u.v.w.x.y.z.A.B.    ",
"      C.D.E.g v F.G.H.I.J.K.L.M.N.O.P.Q.R.      ",
"      S.T.U.V.w W.X.Y.Z.`. +M..+++@+#+$+%+      ",
"        &+*+=+x L -+;+>+,+'+N.++)+!+~+{+]+      ",
"        ^+/+(+_+M  .!.3.i.x.O.@+!+:+<+[+        ",
"          7 }+|+1+..~.4.j.y.2+#+3+4+5+          ",
"            6+7+8+9+0+a+b+c+d+e+f+g+            ",
"                h+i+j+k+l+m+n+o+]+              ",
"                    ^.p+q+r+                    ",
"                                                ",
"                                                "};
