/* XPM */
static char * pause_icon_24x24_xpm[] = {
"24 24 273 2",
"  	c None",
". 	c #F2B418",
"+ 	c #F1B418",
"@ 	c #EFB416",
"# 	c #EEAF15",
"$ 	c #EBA516",
"% 	c #EBA320",
"& 	c #F3AC1A",
"* 	c #F2B818",
"= 	c #EFC815",
"- 	c #EDCF13",
"; 	c #EDD012",
"> 	c #ECCF12",
", 	c #EDCE1E",
"' 	c #EECD44",
") 	c #F0C360",
"! 	c #EFBE66",
"~ 	c #F3A71A",
"{ 	c #F1BC17",
"] 	c #EFCA14",
"^ 	c #EDC313",
"/ 	c #EFB812",
"( 	c #F4B111",
"_ 	c #F4B011",
": 	c #F4C029",
"< 	c #F9DF66",
"[ 	c #F8ED93",
"} 	c #F4E093",
"| 	c #EFC376",
"1 	c #F4A11D",
"2 	c #F1B517",
"3 	c #EFC014",
"4 	c #EDAD15",
"5 	c #EF9114",
"6 	c #CE6418",
"7 	c #6A2828",
"8 	c #3B153E",
"9 	c #492D50",
"0 	c #835E5B",
"a 	c #D5A661",
"b 	c #F8E87B",
"c 	c #F4E692",
"d 	c #ECBB6C",
"e 	c #F5951C",
"f 	c #F2A119",
"g 	c #EFAC16",
"h 	c #ED9E15",
"i 	c #E97D15",
"j 	c #863029",
"k 	c #000052",
"l 	c #00116D",
"m 	c #00287A",
"n 	c #073584",
"o 	c #0A3886",
"p 	c #122A70",
"q 	c #917B75",
"r 	c #EEE07B",
"s 	c #F1DB85",
"t 	c #E69F55",
"u 	c #F28B1B",
"v 	c #EE8F18",
"w 	c #ED8916",
"x 	c #EE7414",
"y 	c #6E252D",
"z 	c #00005B",
"A 	c #001971",
"B 	c #003B85",
"C 	c #005395",
"D 	c #005F9D",
"E 	c #015C9B",
"F 	c #004B90",
"G 	c #072F7C",
"H 	c #856C5D",
"I 	c #F7E774",
"J 	c #E8AB59",
"K 	c #F0801A",
"L 	c #EF7B19",
"M 	c #EC7417",
"N 	c #EB6A15",
"O 	c #AF411C",
"P 	c #0C0255",
"Q 	c #000C68",
"R 	c #003682",
"S 	c #005B9A",
"T 	c #007BAF",
"U 	c #008CBA",
"V 	c #0089B8",
"W 	c #0070A8",
"X 	c #014F93",
"Y 	c #102F79",
"Z 	c #C59F50",
"` 	c #EDC24D",
" .	c #DE7422",
"..	c #EB7118",
"+.	c #E76716",
"@.	c #E76114",
"#.	c #E45713",
"$.	c #691F30",
"%.	c #00005C",
"&.	c #001B70",
"*.	c #00438B",
"=.	c #97D3E7",
"-.	c #D6F2F6",
";.	c #3FCBE2",
">.	c #C8F1F8",
",.	c #A3D0E1",
"'.	c #00609E",
").	c #023B89",
"!.	c #5D454F",
"~.	c #F1C52F",
"{.	c #DE6E13",
"].	c #E26015",
"^.	c #DA5212",
"/.	c #DF5011",
"(.	c #DA4811",
"_.	c #43113C",
":.	c #00005F",
"<.	c #012175",
"[.	c #004F92",
"}.	c #93D0E6",
"|.	c #CCEEF4",
"1.	c #43DDEE",
"2.	c #BEEEF7",
"3.	c #9CD0E1",
"4.	c #0068A4",
"5.	c #013F89",
"6.	c #282852",
"7.	c #E4A818",
"8.	c #DE720B",
"9.	c #DC5212",
"0.	c #CD3F10",
"a.	c #D6400F",
"b.	c #D33B0E",
"c.	c #390C3C",
"d.	c #0A0A66",
"e.	c #172E7D",
"f.	c #0F5396",
"g.	c #97D1E6",
"h.	c #CDEDF3",
"i.	c #4FCDE3",
"j.	c #BFECF5",
"k.	c #9ECDDF",
"l.	c #003684",
"m.	c #1B1C4C",
"n.	c #DC990D",
"o.	c #E07607",
"p.	c #D94810",
"q.	c #C6320D",
"r.	c #CB300C",
"s.	c #D12F0B",
"t.	c #551838",
"u.	c #17186E",
"v.	c #192475",
"w.	c #104289",
"x.	c #93C9E1",
"y.	c #C8E6EF",
"z.	c #4EAFCF",
"A.	c #BAE6F2",
"B.	c #A0C5DA",
"C.	c #045093",
"D.	c #002478",
"E.	c #261B3A",
"F.	c #EAA007",
"G.	c #E17B07",
"H.	c #D93D0E",
"I.	c #C62B0C",
"J.	c #C1230B",
"K.	c #D02208",
"L.	c #811B21",
"M.	c #191869",
"N.	c #191A70",
"O.	c #162B7B",
"P.	c #406EA6",
"Q.	c #5388B5",
"R.	c #2875AB",
"S.	c #4F8DBA",
"T.	c #4475A9",
"U.	c #163F88",
"V.	c #000A68",
"W.	c #7C5821",
"X.	c #EB9607",
"Y.	c #E38507",
"Z.	c #D6310B",
"`.	c #CA260A",
" +	c #BB1A09",
".+	c #C21607",
"++	c #C61006",
"@+	c #2C214D",
"#+	c #181770",
"$+	c #182777",
"%+	c #183783",
"&+	c #194189",
"*+	c #183E87",
"=+	c #18327F",
"-+	c #151D74",
";+	c #2C3450",
">+	c #E58807",
",+	c #E58E08",
"'+	c #E59008",
")+	c #CE1D07",
"!+	c #BC1308",
"~+	c #B60D07",
"{+	c #C30602",
"]+	c #BC140B",
"^+	c #393961",
"/+	c #1F2173",
"(+	c #17176E",
"_+	c #181970",
":+	c #181C71",
"<+	c #181A70",
"[+	c #171C6E",
"}+	c #323A59",
"|+	c #CF7C12",
"1+	c #E58B08",
"2+	c #E69608",
"3+	c #CD1004",
"4+	c #C30903",
"5+	c #B40905",
"6+	c #B30E06",
"7+	c #C21502",
"8+	c #D13C1D",
"9+	c #8D5148",
"0+	c #443A55",
"a+	c #2B3666",
"b+	c #2A3866",
"c+	c #444458",
"d+	c #7A603C",
"e+	c #D08213",
"f+	c #E78D06",
"g+	c #E79A09",
"h+	c #E9A209",
"i+	c #C90801",
"j+	c #C21203",
"k+	c #B41806",
"l+	c #B11B08",
"m+	c #BD2606",
"n+	c #C93A06",
"o+	c #C94E0C",
"p+	c #CA5C0F",
"q+	c #CE6A0F",
"r+	c #D7790E",
"s+	c #E48607",
"t+	c #E69107",
"u+	c #E89F09",
"v+	c #EAA809",
"w+	c #CC2002",
"x+	c #C52804",
"y+	c #B92807",
"z+	c #B52A08",
"A+	c #BC3608",
"B+	c #C64707",
"C+	c #D05B07",
"D+	c #DA7007",
"E+	c #E28407",
"F+	c #E79508",
"G+	c #EAA208",
"H+	c #EBAB08",
"I+	c #CB4F1B",
"J+	c #CC4A07",
"K+	c #CE4E02",
"L+	c #CE5704",
"M+	c #D36404",
"N+	c #DC7904",
"O+	c #E3910A",
"P+	c #E4A51F",
"Q+	c #A19692",
"R+	c #968277",
"S+	c #997356",
"T+	c #9D6D3F",
"U+	c #9E713F",
"V+	c #9A7B55",
"W+	c #988A76",
"X+	c #A29D93",
"                                                ",
"                                                ",
"                  . + @ # $ %                   ",
"              & * = - ; > , ' ) !               ",
"            ~ { ] ^ / ( _ : < [ } |             ",
"          1 2 3 4 5 6 7 8 9 0 a b c d           ",
"        e f g h i j k l m n o p q r s t         ",
"        u v w x y z A B C D E F G H I J         ",
"      K L M N O P Q R S T U V W X Y Z `  .      ",
"      ..+.@.#.$.%.&.*.=.-.;.>.,.'.).!.~.{.      ",
"      ].^./.(._.:.<.[.}.|.1.2.3.4.5.6.7.8.      ",
"      9.0.a.b.c.d.e.f.g.h.i.j.k.D l.m.n.o.      ",
"      p.q.r.s.t.u.v.w.x.y.z.A.B.C.D.E.F.G.      ",
"      H.I.J.K.L.M.N.O.P.Q.R.S.T.U.V.W.X.Y.      ",
"      Z.`. +.+++@+#+N.$+%+&+*+=+-+;+>+,+'+      ",
"        )+!+~+{+]+^+/+(+_+:+<+[+}+|+1+2+        ",
"        3+4+5+6+7+8+9+0+a+b+c+d+e+f+g+h+        ",
"          i+j+k+l+m+n+o+p+q+r+s+t+u+v+          ",
"            w+x+y+z+A+B+C+D+E+F+G+H+            ",
"                I+J+K+L+M+N+O+P+                ",
"                Q+R+S+T+U+V+W+X+                ",
"                                                ",
"                                                ",
"                                                "};
