/* XPM */
static char * penguin_24x24_xpm[] = {
"20 24 141 2",
"  	c None",
". 	c #000000",
"+ 	c #313131",
"@ 	c #070707",
"# 	c #121212",
"$ 	c #4C4C4C",
"% 	c #565757",
"& 	c #707070",
"* 	c #5A5A5A",
"= 	c #4D4D4C",
"- 	c #FFFFFF",
"; 	c #001323",
"> 	c #716F73",
", 	c #222235",
"' 	c #C2C220",
") 	c #D8DF05",
"! 	c #595937",
"~ 	c #8B8B96",
"{ 	c #797900",
"] 	c #FAFA00",
"^ 	c #FEFE00",
"/ 	c #FFFF00",
"( 	c #C0C000",
"_ 	c #5F5F2A",
": 	c #BFBF00",
"< 	c #DDDD00",
"[ 	c #9F9F26",
"} 	c #BCBC5D",
"| 	c #0D0D14",
"1 	c #737376",
"2 	c #85856E",
"3 	c #81816A",
"4 	c #A3A39E",
"5 	c #F8F8FA",
"6 	c #6F6F6E",
"7 	c #111111",
"8 	c #1C1C1C",
"9 	c #E8E8E8",
"0 	c #CFCFCF",
"a 	c #CCCCCC",
"b 	c #F4F4F4",
"c 	c #D3D3D3",
"d 	c #141414",
"e 	c #9C9C9C",
"f 	c #020202",
"g 	c #5D5D5D",
"h 	c #F6F4F4",
"i 	c #264545",
"j 	c #181818",
"k 	c #0E0E0E",
"l 	c #D2D2D2",
"m 	c #EDECEC",
"n 	c #868D8D",
"o 	c #2C2C2C",
"p 	c #5F5F5F",
"q 	c #E5E5E5",
"r 	c #353535",
"s 	c #DEDEDE",
"t 	c #797979",
"u 	c #474747",
"v 	c #3D3D3D",
"w 	c #FAFAFA",
"x 	c #FFFFC4",
"y 	c #929292",
"z 	c #737373",
"A 	c #FEFEFE",
"B 	c #FFFFFC",
"C 	c #969696",
"D 	c #454551",
"E 	c #E3E3E3",
"F 	c #FFFFF4",
"G 	c #F0F0F0",
"H 	c #878787",
"I 	c #010100",
"J 	c #E4E400",
"K 	c #B1B100",
"L 	c #686860",
"M 	c #C9C9CC",
"N 	c #BEBEBD",
"O 	c #757580",
"P 	c #A4A400",
"Q 	c #0F0F00",
"R 	c #C2C200",
"S 	c #F0F000",
"T 	c #C6C600",
"U 	c #454528",
"V 	c #49491A",
"W 	c #E1E1E3",
"X 	c #FFFFD1",
"Y 	c #EAEAEF",
"Z 	c #858594",
"` 	c #656557",
" .	c #8E8E79",
"..	c #BBBB00",
"+.	c #181800",
"@.	c #EDED00",
"#.	c #E7E700",
"$.	c #BABA00",
"%.	c #CCCC00",
"&.	c #353E01",
"*.	c #6D7B82",
"=.	c #FEFEFF",
"-.	c #FFFFE6",
";.	c #E1E1E1",
">.	c #7D7D92",
",.	c #D5D500",
"'.	c #E9E900",
").	c #E2E200",
"!.	c #969600",
"~.	c #141400",
"{.	c #191900",
"].	c #CDCD00",
"^.	c #ADAF00",
"/.	c #A0A380",
"(.	c #FFFFFE",
"_.	c #5A5A5F",
":.	c #5E5E0D",
"<.	c #C4C400",
"[.	c #B5B500",
"}.	c #111100",
"|.	c #0E0E00",
"1.	c #9A9A00",
"2.	c #C1C100",
"3.	c #A6A600",
"4.	c #7F7F5B",
"5.	c #8C8C8C",
"6.	c #424242",
"7.	c #5E5E00",
"8.	c #C3C300",
"9.	c #696900",
"0.	c #363600",
"a.	c #212100",
"b.	c #343400",
"c.	c #B0B000",
"d.	c #A8A800",
"e.	c #A9A900",
"f.	c #616100",
"g.	c #656500",
"h.	c #AEAE00",
"i.	c #4D4D00",
"j.	c #0C0C00",
"                . . . .                 ",
"              . . . . + .               ",
"              . . . . @ .               ",
"              # $ . % & . *             ",
"              = - ; > - . .             ",
"              , ' ) ! ~ . .             ",
"              { ] ^ / ( . .             ",
"              _ : < [ } | .             ",
"              1 2 3 4 5 6 . 7           ",
"            8 9 0 a b - c d @ e         ",
"          f g - - - - - h i . j         ",
"        k . l - - - - - m n . . .       ",
"        o p - - - - - - - q r . .       ",
"        @ s - - - - - - - - t . . u     ",
"      . v w - - x - - - - - y . . .     ",
"      . z A - - - B B - - - C . . .     ",
"      . D E - - - F F - - G H . I .     ",
"    . J K L M - - - - - - N O . . P     ",
"  Q R S T U V W - X - x Y Z R `  ....   ",
"+.@.#.$.( %.&.*.=.-.- - ;.>.R ,.'.).!.~.",
"{.].: ( ( ( ^./.- (.- - _.:.R ( : <.[.}.",
"|.1.$.2.2.2.3.4.H H 5.6.. 7.8.2.( 9.0.  ",
"  a.b.c.d.e.f.. . . . . . g.e.h.i.      ",
"      Q Q Q j.            Q Q Q         "};
