/* XPM */
static char * play_icon_black_24x24_xpm[] = {
"24 24 293 2",
"  	c None",
". 	c #B1B2B4",
"+ 	c #C1C2C3",
"@ 	c #C9C9CB",
"# 	c #CECFD0",
"$ 	c #CFCFD0",
"% 	c #CCCDCE",
"& 	c #C5C6C8",
"* 	c #BBBCBD",
"= 	c #AFB1B2",
"- 	c #A9ABAD",
"; 	c #A7A8AB",
"> 	c #C7C8C9",
", 	c #CDCECF",
"' 	c #CBCCCD",
") 	c #B6B8B9",
"! 	c #A5A6A8",
"~ 	c #B8B9B9",
"{ 	c #A0A1A3",
"] 	c #939597",
"^ 	c #BEBEC0",
"/ 	c #C4C4C7",
"( 	c #C6C7CA",
"_ 	c #A4A6A8",
": 	c #97999B",
"< 	c #AEAFB1",
"[ 	c #969799",
"} 	c #858789",
"| 	c #A4A5A6",
"1 	c #BCBDBE",
"2 	c #B5B6B8",
"3 	c #B6B7B9",
"4 	c #B9BABC",
"5 	c #BABBBD",
"6 	c #8C8D8F",
"7 	c #919395",
"8 	c #97989A",
"9 	c #7D7F81",
"0 	c #7B7C7F",
"a 	c #ADAEAF",
"b 	c #ABACAE",
"c 	c #E4E6DF",
"d 	c #D2D3D1",
"e 	c #AAABAD",
"f 	c #AEAFB0",
"g 	c #AFB0B1",
"h 	c #949597",
"i 	c #7B7D7F",
"j 	c #8F9093",
"k 	c #7A7C7E",
"l 	c #6F7274",
"m 	c #737577",
"n 	c #A3A5A6",
"o 	c #A0A1A4",
"p 	c #E9F0D3",
"q 	c #F0F9D6",
"r 	c #E2E9D1",
"s 	c #AEB0AB",
"t 	c #A2A3A4",
"u 	c #9FA0A2",
"v 	c #A0A1A2",
"w 	c #A1A2A3",
"x 	c #8E9091",
"y 	c #717375",
"z 	c #727476",
"A 	c #999B9C",
"B 	c #858788",
"C 	c #626365",
"D 	c #66686B",
"E 	c #66676A",
"F 	c #909293",
"G 	c #929298",
"H 	c #D9E8B0",
"I 	c #DEF0AC",
"J 	c #DEF1A9",
"K 	c #DBEEA3",
"L 	c #BBC997",
"M 	c #9FA29C",
"N 	c #8E8E92",
"O 	c #919293",
"P 	c #919294",
"Q 	c #929395",
"R 	c #7B7C7E",
"S 	c #66686A",
"T 	c #67686B",
"U 	c #767779",
"V 	c #67696A",
"W 	c #565859",
"X 	c #5B5D5E",
"Y 	c #5A5C5E",
"Z 	c #84848C",
"` 	c #C4DD8E",
" .	c #CAE68E",
"..	c #CBE78F",
"+.	c #C2E27B",
"@.	c #BADF6B",
"#.	c #BBDC78",
"$.	c #ADB998",
"%.	c #807F87",
"&.	c #7F8183",
"*.	c #828485",
"=.	c #5E6062",
"-.	c #5B5D5F",
";.	c #5B5D60",
">.	c #616365",
",.	c #515254",
"'.	c #4B4C4E",
").	c #4E5052",
"!.	c #4F5052",
"~.	c #515355",
"{.	c #716F78",
"].	c #A7CF71",
"^.	c #ACD971",
"/.	c #B5DE80",
"(.	c #A7D667",
"_.	c #A0D25A",
":.	c #A0D259",
"<.	c #A3D65B",
"[.	c #ACD17B",
"}.	c #8A9283",
"|.	c #636566",
"1.	c #4D4F51",
"2.	c #505053",
"3.	c #505152",
"4.	c #525356",
"5.	c #7B7C7D",
"6.	c #3F3F41",
"7.	c #3F4042",
"8.	c #424345",
"9.	c #434447",
"0.	c #434446",
"a.	c #4F4D57",
"b.	c #94C45B",
"c.	c #91CC4B",
"d.	c #96CD53",
"e.	c #90CB4A",
"f.	c #90CB49",
"g.	c #95CE54",
"h.	c #9DD15F",
"i.	c #A3D567",
"j.	c #A7D76D",
"k.	c #92B46A",
"l.	c #525255",
"m.	c #434547",
"n.	c #444648",
"o.	c #676869",
"p.	c #212224",
"q.	c #2F3132",
"r.	c #363739",
"s.	c #36383A",
"t.	c #363839",
"u.	c #3C3A46",
"v.	c #90C139",
"w.	c #90CB26",
"x.	c #96CE31",
"y.	c #9DD140",
"z.	c #A9D758",
"A.	c #ADD95F",
"B.	c #ACD85C",
"C.	c #A8D754",
"D.	c #AFE059",
"E.	c #9CB574",
"F.	c #38393C",
"G.	c #373A3B",
"H.	c #2F3031",
"I.	c #525355",
"J.	c #1F1F20",
"K.	c #151718",
"L.	c #252729",
"M.	c #2B2C2E",
"N.	c #2F2D39",
"O.	c #B0D057",
"P.	c #B4DD46",
"Q.	c #BCE055",
"R.	c #C4E56A",
"S.	c #C4E46A",
"T.	c #C4E46C",
"U.	c #B3CE69",
"V.	c #676D57",
"W.	c #252528",
"X.	c #222325",
"Y.	c #1E1F21",
"Z.	c #575858",
"`.	c #2C2C2D",
" +	c #0F1011",
".+	c #151617",
"++	c #1B1C1E",
"@+	c #22222A",
"#+	c #C4D989",
"$+	c #D4EB93",
"%+	c #D9ED9E",
"&+	c #D8ED9C",
"*+	c #DDF39E",
"=+	c #CADB9A",
"-+	c #7A8264",
";+	c #2E2E33",
">+	c #18191D",
",+	c #202123",
"'+	c #1D1E20",
")+	c #191B1C",
"!+	c #161718",
"~+	c #4F4F50",
"{+	c #0A0B0C",
"]+	c #101112",
"^+	c #131314",
"/+	c #141516",
"(+	c #18171E",
"_+	c #C3D788",
":+	c #CEE987",
"<+	c #CEEA86",
"[+	c #DBF592",
"}+	c #949D7A",
"|+	c #292A28",
"1+	c #151618",
"2+	c #141517",
"3+	c #131415",
"4+	c #424243",
"5+	c #1C1C1D",
"6+	c #09090B",
"7+	c #0E0F10",
"8+	c #16131E",
"9+	c #AFD05E",
"0+	c #B6DD53",
"a+	c #A7C164",
"b+	c #3E403A",
"c+	c #050609",
"d+	c #111213",
"e+	c #121313",
"f+	c #111212",
"g+	c #171819",
"h+	c #2F2F30",
"i+	c #686869",
"j+	c #4A4B4B",
"k+	c #0D0E0E",
"l+	c #09090A",
"m+	c #0C0C0D",
"n+	c #0B0B0F",
"o+	c #71834C",
"p+	c #5C6841",
"q+	c #151419",
"r+	c #0E0E10",
"s+	c #0E0E0F",
"t+	c #0C0D0E",
"u+	c #111112",
"v+	c #2D2D2E",
"w+	c #060707",
"x+	c #070708",
"y+	c #080809",
"z+	c #0D0D0E",
"A+	c #0A0A0A",
"B+	c #0B0B0B",
"C+	c #0A0B0B",
"D+	c #0B0B0C",
"E+	c #2A2A2B",
"F+	c #2F2F2F",
"G+	c #434444",
"H+	c #242525",
"I+	c #040405",
"J+	c #060607",
"K+	c #070608",
"L+	c #080909",
"M+	c #111111",
"N+	c #1D1D1D",
"O+	c #2B2B2B",
"P+	c #2D2D2D",
"Q+	c #2E2F2F",
"R+	c #3D3D3D",
"S+	c #616162",
"T+	c #303031",
"U+	c #202120",
"V+	c #171717",
"W+	c #1C1C1C",
"X+	c #232323",
"Y+	c #272728",
"Z+	c #292929",
"`+	c #383838",
" @	c #454546",
".@	c #474747",
"+@	c #18191A",
"@@	c #292A2B",
"#@	c #3F3F40",
"$@	c #393A3A",
"%@	c #272727",
"&@	c #3E3E3E",
"*@	c #4E4E4F",
"=@	c #3D3D3E",
"-@	c #1F2021",
";@	c #1D1E1E",
">@	c #3A3B3B",
",@	c #434344",
"'@	c #444444",
")@	c #414141",
"!@	c #2D2E30",
"                                                ",
"                . + @ # $ % & * =               ",
"            - ; > , , , , , , ' ) ! ~           ",
"          { ] ^ / / / / / / / / ( _ : <         ",
"        [ } | 1 2 3 4 4 4 4 4 4 4 5 6 7         ",
"      8 9 0 a b c d e a f f f f f g h i j       ",
"      k l m n o p q r s t u v v v w x y z A     ",
"    B C D E F G H I J K L M N O P Q R S T U     ",
"    V W X Y y Z `  ...+.@.#.$.%.&.*.=.-.;.>.    ",
"    ,.'.).!.~.{.].^./.(._.:.<.[.}.|.1.2.3.4.5.  ",
"    6.7.8.9.0.a.b.c.d.e.f.g.h.i.j.k.l.8.m.n.o.  ",
"    p.q.r.s.t.u.v.w.x.y.z.A.B.C.D.E.F.r.G.H.I.  ",
"    J.K.L.M.M.N.O.P.Q.R.S.R.T.U.V.W.M.M.X.Y.Z.  ",
"    `. +.+++Y.@+#+$+%+&+*+=+-+;+>+,+'+)+!+p.    ",
"    ~+{+]+^+/+(+_+:+<+[+}+|+1+.+!+.+2+3+.+4+    ",
"      5+6+7+ +8+9+0+a+b+c+d+e+d+e+d+f+g+h+i+    ",
"      j+k+l+m+n+o+p+q+6+7+r+r+s+t+u+J.v+~+      ",
"        h+w+x+y+z+l+A+B+{+C+l+D+5+E+F+G+        ",
"          H+x+I+J+K+y+L+A+M+N+O+P+Q+R+S+        ",
"            T+U+M+u+V+W+X+Y+Z+O+`+ @.@          ",
"            +@@@#@$@Z+%@Z+F+&@*@=@-@3+          ",
"            /+3+ +;@>@,@'@)@!@7+d+/+/+          ",
"                                                ",
"                                                "};
