/* XPM */
static char * play_icon_16x16_xpm[] = {
"24 24 276 2",
"  	c None",
". 	c #F0BE16",
"+ 	c #EFBC15",
"@ 	c #EFB713",
"# 	c #EEB419",
"$ 	c #EDB628",
"% 	c #F3B119",
"& 	c #F1BE17",
"* 	c #EECD15",
"= 	c #EED213",
"- 	c #F0D311",
"; 	c #F2D310",
"> 	c #F3D626",
", 	c #F3D749",
"' 	c #F2D06E",
") 	c #F0C673",
"! 	c #F0BB17",
"~ 	c #F2C115",
"{ 	c #FDC112",
"] 	c #EEAE10",
"^ 	c #D59811",
"/ 	c #C28D18",
"( 	c #C89C32",
"_ 	c #DDB953",
": 	c #FBD772",
"< 	c #FDDE81",
"[ 	c #F4D783",
"} 	c #F4A21C",
"| 	c #F1B418",
"1 	c #F1BB15",
"2 	c #EDB214",
"3 	c #E28F18",
"4 	c #BC671E",
"5 	c #904627",
"6 	c #703B36",
"7 	c #78524C",
"8 	c #9B7F63",
"9 	c #CDB673",
"0 	c #E8D887",
"a 	c #F2DF8B",
"b 	c #ECBC6A",
"c 	c #F49A1B",
"d 	c #F29E1A",
"e 	c #EFA817",
"f 	c #FA9E12",
"g 	c #DD7617",
"h 	c #5E2733",
"i 	c #23114F",
"j 	c #101B67",
"k 	c #0E2F75",
"l 	c #123D80",
"m 	c #194282",
"n 	c #223875",
"o 	c #827D72",
"p 	c #E3C875",
"q 	c #EECE7A",
"r 	c #EEBF6D",
"s 	c #F18C1A",
"t 	c #F18E18",
"u 	c #F58E15",
"v 	c #CD691A",
"w 	c #83362D",
"x 	c #1B0851",
"y 	c #001171",
"z 	c #00328A",
"A 	c #004A96",
"B 	c #00579F",
"C 	c #00549E",
"D 	c #003A8B",
"E 	c #2A497B",
"F 	c #817C70",
"G 	c #E4CD71",
"H 	c #F5C05A",
"I 	c #E08436",
"J 	c #F07F1A",
"K 	c #EE7C19",
"L 	c #EE7616",
"M 	c #F86F11",
"N 	c #943828",
"O 	c #220649",
"P 	c #010E68",
"Q 	c #033887",
"R 	c #1267A2",
"S 	c #1582B3",
"T 	c #0C8EBB",
"U 	c #0188B8",
"V 	c #006FA7",
"W 	c #003D91",
"X 	c #1E3A77",
"Y 	c #C4B55E",
"Z 	c #EDAF41",
"` 	c #E1822C",
" .	c #E96F17",
"..	c #E86A15",
"+.	c #E86113",
"@.	c #ED570E",
"#.	c #732532",
"$.	c #00005D",
"%.	c #001A70",
"&.	c #115497",
"*.	c #4199C3",
"=.	c #92D4E7",
"-.	c #62D4E8",
";.	c #11B4D4",
">.	c #008BBA",
",.	c #005AA3",
"'.	c #124783",
").	c #857A50",
"!.	c #C9862B",
"~.	c #E68318",
"{.	c #E05D14",
"].	c #E05813",
"^.	c #DD4E11",
"/.	c #D4430E",
"(.	c #5E1937",
"_.	c #000068",
":.	c #012479",
"<.	c #1D629F",
"[.	c #55AACD",
"}.	c #B8EAF5",
"|.	c #BAF7FC",
"1.	c #88DFEC",
"2.	c #4BB3D1",
"3.	c #1272B0",
"4.	c #074584",
"5.	c #5B5548",
"6.	c #B3701F",
"7.	c #E9840C",
"8.	c #D84D12",
"9.	c #D74610",
"0.	c #D13D0E",
"a.	c #C4340C",
"b.	c #591539",
"c.	c #00056C",
"d.	c #0C297C",
"e.	c #2663A0",
"f.	c #5AA7CB",
"g.	c #B7E7F3",
"h.	c #E3F9FC",
"i.	c #D4E8EF",
"j.	c #7FBED7",
"k.	c #2874B0",
"l.	c #043B7D",
"m.	c #4B4640",
"n.	c #AA6918",
"o.	c #EA8505",
"p.	c #D54310",
"q.	c #CE3A0E",
"r.	c #C92E0B",
"s.	c #D42C05",
"t.	c #671D39",
"u.	c #001371",
"v.	c #112275",
"w.	c #2A5696",
"x.	c #5D9EC5",
"y.	c #BDECF7",
"z.	c #A4DEED",
"A.	c #5BA9CB",
"B.	c #2781B2",
"C.	c #034C99",
"D.	c #0C2E73",
"E.	c #5F4D30",
"F.	c #B56F10",
"G.	c #E98406",
"H.	c #D63A0D",
"I.	c #C92F0C",
"J.	c #C22309",
"K.	c #D72002",
"L.	c #7D1D2D",
"M.	c #191A5F",
"N.	c #12176F",
"O.	c #223A88",
"P.	c #416BA4",
"Q.	c #6696BF",
"R.	c #4F8EBA",
"S.	c #2670A7",
"T.	c #135497",
"U.	c #002C88",
"V.	c #132267",
"W.	c #976620",
"X.	c #D58208",
"Y.	c #E78807",
"Z.	c #D7300B",
"`.	c #C7250A",
" +	c #BF1A08",
".+	c #CF1503",
"++	c #9A1619",
"@+	c #521A3F",
"#+	c #271C69",
"$+	c #1D267B",
"%+	c #1C3181",
"&+	c #0D3482",
"*+	c #0E3A87",
"=+	c #143D89",
"-+	c #173583",
";+	c #132571",
">+	c #3F314D",
",+	c #CE8112",
"'+	c #F29503",
")+	c #E58E08",
"!+	c #C81A07",
"~+	c #C01307",
"{+	c #BA0C06",
"]+	c #BE0801",
"^+	c #AF1515",
"/+	c #694564",
"(+	c #283379",
"_+	c #011375",
":+	c #0B1477",
"<+	c #0B1277",
"[+	c #091576",
"}+	c #092576",
"|+	c #5A4B4B",
"1+	c #B8741A",
"2+	c #E08D0A",
"3+	c #EC9706",
"4+	c #CA0E04",
"5+	c #C40C04",
"6+	c #B70C06",
"7+	c #BD0B00",
"8+	c #C01607",
"9+	c #A6392D",
"0+	c #7E3B3E",
"a+	c #5B3245",
"b+	c #53354E",
"c+	c #543A4F",
"d+	c #604347",
"e+	c #7B5339",
"f+	c #B5751E",
"g+	c #E49209",
"h+	c #E89A08",
"i+	c #EA9E08",
"j+	c #C70600",
"k+	c #BD1003",
"l+	c #B51706",
"m+	c #B61D04",
"n+	c #C92300",
"o+	c #CC3D04",
"p+	c #C15715",
"q+	c #A75F22",
"r+	c #AA6F23",
"s+	c #C48019",
"t+	c #F18B01",
"u+	c #F49400",
"v+	c #E99C07",
"w+	c #EAA608",
"x+	c #CA1800",
"y+	c #C52300",
"z+	c #C12900",
"A+	c #BD2C02",
"B+	c #C03705",
"C+	c #C54708",
"D+	c #CA5A0A",
"E+	c #D47009",
"F+	c #E18606",
"G+	c #EC9801",
"H+	c #EEA100",
"I+	c #EDA700",
"J+	c #C35C40",
"K+	c #BB5532",
"L+	c #B54F25",
"M+	c #B7511B",
"N+	c #BD5814",
"O+	c #C46514",
"P+	c #CB7719",
"Q+	c #D18A23",
"R+	c #D49F34",
"S+	c #D7AD44",
"T+	c #AF9D8E",
"U+	c #B1794F",
"V+	c #B37037",
"W+	c #B46F2C",
"X+	c #B4742D",
"Y+	c #B58038",
"Z+	c #B59050",
"`+	c #AEA691",
"                                                ",
"                                                ",
"                  . . + @ # $                   ",
"              % & * = - ; > , ' )               ",
"            % ! ~ { ] ^ / ( _ : < [             ",
"          } | 1 2 3 4 5 6 7 8 9 0 a b           ",
"        c d e f g h i j k l m n o p q r         ",
"        s t u v w x y z A B C D E F G H I       ",
"      J K L M N O P Q R S T U V W X Y Z `       ",
"       ...+.@.#.$.%.&.*.=.-.;.>.,.'.).!.~.      ",
"      {.].^./.(._.:.<.[.}.|.1.2.3.4.5.6.7.      ",
"      8.9.0.a.b.c.d.e.f.g.h.i.j.k.l.m.n.o.      ",
"      p.q.r.s.t.u.v.w.x.y.z.A.B.C.D.E.F.G.      ",
"      H.I.J.K.L.M.N.O.P.Q.R.S.T.U.V.W.X.Y.      ",
"      Z.`. +.+++@+#+$+%+&+*+=+-+;+>+,+'+)+      ",
"        !+~+{+]+^+/+(+_+:+<+[+}+|+1+2+3+        ",
"        4+5+6+7+8+9+0+a+b+c+d+e+f+g+h+i+        ",
"          j+k+l+m+n+o+p+q+r+s+t+u+v+w+          ",
"            x+y+z+A+B+C+D+E+F+G+H+I+            ",
"              J+K+L+M+N+O+P+Q+R+S+              ",
"                T+U+V+W+X+Y+Z+`+                ",
"                                                ",
"                                                ",
"                                                "};
