/* XPM */
static char * stop_icon_24x24_xpm[] = {
"24 24 270 2",
"  	c None",
". 	c #F2B418",
"+ 	c #F1B418",
"@ 	c #EFB416",
"# 	c #EEAF15",
"$ 	c #EBA516",
"% 	c #EBA320",
"& 	c #F3AC1A",
"* 	c #F2B818",
"= 	c #EFC815",
"- 	c #EDCF13",
"; 	c #EDD012",
"> 	c #ECCF12",
", 	c #EDCE1E",
"' 	c #EECD44",
") 	c #F0C360",
"! 	c #EFBE66",
"~ 	c #F3A71A",
"{ 	c #F1BC17",
"] 	c #EFCA14",
"^ 	c #EDC313",
"/ 	c #EFB812",
"( 	c #F4B111",
"_ 	c #F4B011",
": 	c #F4C029",
"< 	c #F9DF66",
"[ 	c #F8ED93",
"} 	c #F4E093",
"| 	c #EFC376",
"1 	c #F4A11D",
"2 	c #F1B517",
"3 	c #EFC014",
"4 	c #EDAD15",
"5 	c #EF9114",
"6 	c #CE6418",
"7 	c #6A2828",
"8 	c #3B153E",
"9 	c #492D50",
"0 	c #835E5B",
"a 	c #D5A661",
"b 	c #F8E87B",
"c 	c #F4E692",
"d 	c #ECBB6C",
"e 	c #F5951C",
"f 	c #F2A119",
"g 	c #EFAC16",
"h 	c #ED9E15",
"i 	c #E97D15",
"j 	c #863029",
"k 	c #000052",
"l 	c #00116D",
"m 	c #00287A",
"n 	c #073584",
"o 	c #0A3886",
"p 	c #122A70",
"q 	c #917B75",
"r 	c #EEE07B",
"s 	c #F1DB85",
"t 	c #E69F55",
"u 	c #F28B1B",
"v 	c #EE8F18",
"w 	c #ED8916",
"x 	c #EE7414",
"y 	c #6E252D",
"z 	c #00005B",
"A 	c #001971",
"B 	c #003984",
"C 	c #005194",
"D 	c #005E9C",
"E 	c #005B9A",
"F 	c #004A8F",
"G 	c #07307C",
"H 	c #856C5D",
"I 	c #F7E774",
"J 	c #E8AB59",
"K 	c #F0801A",
"L 	c #EF7B19",
"M 	c #EC7417",
"N 	c #EB6A15",
"O 	c #AF411C",
"P 	c #0C0255",
"Q 	c #000C68",
"R 	c #003581",
"S 	c #1C71A8",
"T 	c #2590BC",
"U 	c #289EC5",
"V 	c #2B9BC3",
"W 	c #2582B3",
"X 	c #004E92",
"Y 	c #102F79",
"Z 	c #C59F50",
"` 	c #EDC24D",
" .	c #DE7422",
"..	c #EB7118",
"+.	c #E76716",
"@.	c #E76114",
"#.	c #E45713",
"$.	c #691F30",
"%.	c #00005C",
"&.	c #001B70",
"*.	c #00458D",
"=.	c #A9E1F1",
"-.	c #CCF2FA",
";.	c #DAF3F8",
">.	c #EAF4F7",
",.	c #DAE8EE",
"'.	c #00609E",
").	c #023B89",
"!.	c #5D454F",
"~.	c #F1C52F",
"{.	c #DE6E13",
"].	c #E26015",
"^.	c #DA5212",
"/.	c #DF5011",
"(.	c #DA4811",
"_.	c #43113C",
":.	c #00005F",
"<.	c #012174",
"[.	c #015194",
"}.	c #A3DDEE",
"|.	c #C4EDF7",
"1.	c #D1EEF6",
"2.	c #E0F0F4",
"3.	c #D1E4EC",
"4.	c #0069A4",
"5.	c #013F89",
"6.	c #282852",
"7.	c #E4A818",
"8.	c #DE720B",
"9.	c #DC5212",
"0.	c #CD3F10",
"a.	c #D6400F",
"b.	c #D33B0E",
"c.	c #390C3C",
"d.	c #0A0A66",
"e.	c #172E7D",
"f.	c #135697",
"g.	c #A4DDEE",
"h.	c #D1E3EB",
"i.	c #005F9E",
"j.	c #003684",
"k.	c #1B1C4C",
"l.	c #DC990D",
"m.	c #E07607",
"n.	c #D94810",
"o.	c #C6320D",
"p.	c #CB300C",
"q.	c #D12F0B",
"r.	c #551838",
"s.	c #17186E",
"t.	c #192475",
"u.	c #14448A",
"v.	c #A4DBED",
"w.	c #C3EDF7",
"x.	c #D1EEF5",
"y.	c #D3E1E9",
"z.	c #045093",
"A.	c #002478",
"B.	c #261B3A",
"C.	c #EAA007",
"D.	c #E17B07",
"E.	c #D93D0E",
"F.	c #C62B0C",
"G.	c #C1230B",
"H.	c #D02208",
"I.	c #811B21",
"J.	c #191869",
"K.	c #191A70",
"L.	c #162B7B",
"M.	c #5583B4",
"N.	c #6499C1",
"O.	c #6A9FC4",
"P.	c #709EC3",
"Q.	c #6A8EB8",
"R.	c #153E87",
"S.	c #000A68",
"T.	c #7C5821",
"U.	c #EB9607",
"V.	c #E38507",
"W.	c #D6310B",
"X.	c #CA260A",
"Y.	c #BB1A09",
"Z.	c #C21607",
"`.	c #C61006",
" +	c #2C214D",
".+	c #181770",
"++	c #182677",
"@+	c #173782",
"#+	c #174089",
"$+	c #173E87",
"%+	c #17317F",
"&+	c #151D74",
"*+	c #2C3450",
"=+	c #E58807",
"-+	c #E58E08",
";+	c #E59008",
">+	c #CE1D07",
",+	c #BC1308",
"'+	c #B60D07",
")+	c #C30602",
"!+	c #BC140B",
"~+	c #393961",
"{+	c #1F2173",
"]+	c #17176E",
"^+	c #181970",
"/+	c #181C71",
"(+	c #181A70",
"_+	c #171C6E",
":+	c #323A59",
"<+	c #CF7C12",
"[+	c #E58B08",
"}+	c #E69608",
"|+	c #CD1004",
"1+	c #C30903",
"2+	c #B40905",
"3+	c #B30E06",
"4+	c #C21502",
"5+	c #D13C1D",
"6+	c #8D5148",
"7+	c #443A55",
"8+	c #2B3666",
"9+	c #2A3866",
"0+	c #444458",
"a+	c #7A603C",
"b+	c #D08213",
"c+	c #E78D06",
"d+	c #E79A09",
"e+	c #E9A209",
"f+	c #C90801",
"g+	c #C21203",
"h+	c #B41806",
"i+	c #B11B08",
"j+	c #BD2606",
"k+	c #C93A06",
"l+	c #C94E0C",
"m+	c #CA5C0F",
"n+	c #CE6A0F",
"o+	c #D7790E",
"p+	c #E48607",
"q+	c #E69107",
"r+	c #E89F09",
"s+	c #EAA809",
"t+	c #CC2002",
"u+	c #C52804",
"v+	c #B92807",
"w+	c #B52A08",
"x+	c #BC3608",
"y+	c #C64707",
"z+	c #D05B07",
"A+	c #DA7007",
"B+	c #E28407",
"C+	c #E79508",
"D+	c #EAA208",
"E+	c #EBAB08",
"F+	c #CB4F1B",
"G+	c #CC4A07",
"H+	c #CE4E02",
"I+	c #CE5704",
"J+	c #D36404",
"K+	c #DC7904",
"L+	c #E3910A",
"M+	c #E4A51F",
"N+	c #A19692",
"O+	c #968277",
"P+	c #997356",
"Q+	c #9D6D3F",
"R+	c #9E713F",
"S+	c #9A7B55",
"T+	c #988A76",
"U+	c #A29D93",
"                                                ",
"                                                ",
"                  . + @ # $ %                   ",
"              & * = - ; > , ' ) !               ",
"            ~ { ] ^ / ( _ : < [ } |             ",
"          1 2 3 4 5 6 7 8 9 0 a b c d           ",
"        e f g h i j k l m n o p q r s t         ",
"        u v w x y z A B C D E F G H I J         ",
"      K L M N O P Q R S T U V W X Y Z `  .      ",
"      ..+.@.#.$.%.&.*.=.-.;.>.,.'.).!.~.{.      ",
"      ].^./.(._.:.<.[.}.|.1.2.3.4.5.6.7.8.      ",
"      9.0.a.b.c.d.e.f.g.|.1.2.h.i.j.k.l.m.      ",
"      n.o.p.q.r.s.t.u.v.w.x.2.y.z.A.B.C.D.      ",
"      E.F.G.H.I.J.K.L.M.N.O.P.Q.R.S.T.U.V.      ",
"      W.X.Y.Z.`. +.+K.++@+#+$+%+&+*+=+-+;+      ",
"        >+,+'+)+!+~+{+]+^+/+(+_+:+<+[+}+        ",
"        |+1+2+3+4+5+6+7+8+9+0+a+b+c+d+e+        ",
"          f+g+h+i+j+k+l+m+n+o+p+q+r+s+          ",
"            t+u+v+w+x+y+z+A+B+C+D+E+            ",
"                F+G+H+I+J+K+L+M+                ",
"                N+O+P+Q+R+S+T+U+                ",
"                                                ",
"                                                ",
"                                                "};
