#define temp1_width 12
#define temp1_height 12
static unsigned char temp1_bits[] = {
   0xc0, 0x01, 0xc0, 0x01, 0xc0, 0x0f, 0xc0, 0x01, 0xc0, 0x01, 0xc0, 0x0f,
   0xc0, 0x01, 0xe0, 0x03, 0xe0, 0x03, 0xe0, 0x03, 0xc0, 0x01, 0xc0, 0x01 };
