/* XPM */
static char * tilebottom_trans_xpm[] = {
"24 24 2 1",
" 	c None",
".	c #DCDCCC",
"........................",
".                      .",
".                      .",
".                      .",
".                      .",
".                      .",
".                      .",
".                      .",
".                      .",
".                      .",
".                      .",
"........................",
".       .      ..      .",
".       .      ..      .",
".       .      ..      .",
".       .      ..      .",
".       .      ..      .",
"........................",
".       .      ..      .",
".       .      ..      .",
".       .      ..      .",
".       .      ..      .",
".       .      ..      .",
"........................"};
