#define vol1_width 10
#define vol1_height 10
static unsigned char vol1_bits[] = {
   0x10, 0x00, 0x10, 0x00, 0x18, 0x01, 0x1f, 0x02, 0x9f, 0x02, 0x9f, 0x02,
   0x9f, 0x02, 0x1f, 0x02, 0x18, 0x01, 0x10, 0x00 };
